<?xml version="1.0" encoding="UTF-8" standalone="no"?>
<svg
   xmlns:dc="http://purl.org/dc/elements/1.1/"
   xmlns:cc="http://creativecommons.org/ns#"
   xmlns:rdf="http://www.w3.org/1999/02/22-rdf-syntax-ns#"
   xmlns:svg="http://www.w3.org/2000/svg"
   xmlns="http://www.w3.org/2000/svg"
   xmlns:sodipodi="http://sodipodi.sourceforge.net/DTD/sodipodi-0.dtd"
   xmlns:inkscape="http://www.inkscape.org/namespaces/inkscape"
   version="1.1"
   viewBox="0 0 100 100"
   stroke-miterlimit="10"
   id="svg55"
   sodipodi:docname="Pause.svg"
   width="100"
   height="100"
   style="fill:none;stroke:none;stroke-linecap:square;stroke-miterlimit:10"
   inkscape:version="0.92.3 (2405546, 2018-03-11)"
   inkscape:export-filename="/home/gabriel/Bureau/TPE-Cancer/Images/play.png"
   inkscape:export-xdpi="288"
   inkscape:export-ydpi="288">
  <metadata
     id="metadata61">
    <rdf:RDF>
      <cc:Work
         rdf:about="">
        <dc:format>image/svg+xml</dc:format>
        <dc:type
           rdf:resource="http://purl.org/dc/dcmitype/StillImage" />
        <dc:title></dc:title>
      </cc:Work>
    </rdf:RDF>
  </metadata>
  <defs
     id="defs59">
    <clipPath
       id="p.1-2">
      <path
         d="M 0,0 H 512 V 512 H 0 Z"
         id="path37-7"
         inkscape:connector-curvature="0"
         style="clip-rule:evenodd" />
    </clipPath>
  </defs>
  <sodipodi:namedview
     pagecolor="#ffffff"
     bordercolor="#666666"
     borderopacity="1"
     objecttolerance="10"
     gridtolerance="10"
     guidetolerance="10"
     inkscape:pageopacity="0"
     inkscape:pageshadow="2"
     inkscape:window-width="1920"
     inkscape:window-height="1009"
     id="namedview57"
     showgrid="false"
     fit-margin-top="0"
     fit-margin-left="0"
     fit-margin-right="0"
     fit-margin-bottom="0"
     inkscape:zoom="5.9181131"
     inkscape:cx="51.249305"
     inkscape:cy="52.199579"
     inkscape:window-x="0"
     inkscape:window-y="42"
     inkscape:window-maximized="1"
     inkscape:current-layer="svg55"
     inkscape:measure-start="0.0597409,49.5252"
     inkscape:measure-end="9.31958,49.2564" />
  <clipPath
     id="p.0">
    <path
       d="M 0,0 H 850 V 380 H 0 Z"
       id="path2"
       inkscape:connector-curvature="0"
       style="clip-rule:nonzero" />
  </clipPath>
  <circle
     style="fill:#000000;fill-opacity:0.11764706;stroke:none;stroke-width:1.47252297;stroke-linecap:round;stroke-linejoin:round;stroke-miterlimit:4;stroke-dasharray:none;stroke-opacity:1"
     id="path918-9"
     cx="50"
     cy="50"
     r="47.5" />
  <circle
     style="fill:#000000;fill-opacity:0.11764706;stroke:none;stroke-width:1.47252297;stroke-linecap:round;stroke-linejoin:round;stroke-miterlimit:4;stroke-dasharray:none;stroke-opacity:1"
     id="path918"
     cx="50"
     cy="50"
     r="47.5" />
  <g
     id="g42"
     transform="scale(0.1953125)">
    <clipPath
       id="p.1">
      <path
         style="clip-rule:evenodd"
         inkscape:connector-curvature="0"
         id="path37"
         d="M 0,0 H 512 V 512 H 0 Z" />
    </clipPath>
    <path
       style="fill:#2394bc;fill-opacity:1;stroke-width:1.0019573"
       d="m 237.95919,511.66757 c -1.92936,-0.22443 -7.79262,-0.88979 -13.02946,-1.47859 C 181.73674,505.33263 137.55994,487.45211 100.86088,459.9722 88.919065,451.03029 66.894944,429.73676 57.030923,417.5962 33.261246,388.34068 13.987272,348.98497 6.0142267,313.42471 1.11023,291.55265 0,280.92056 0,255.8299 0,230.74757 1.1139283,220.07352 6.0039335,198.29831 14.051487,162.46252 33.202212,123.35328 57.044835,94.063603 66.312727,82.67837 84.49353,64.653457 95.868406,55.572929 124.7617,32.507478 163.32189,13.865039 198.43295,5.9867589 219.29754,1.305122 231.84719,3.4344442e-6 255.99997,3.4344442e-6 280.15276,3.4344442e-6 292.70241,1.305122 313.567,5.9867589 c 33.38011,7.4898901 68.52641,23.9517201 97.57208,45.7008541 11.9418,8.94191 33.96589,30.235434 43.82999,42.37599 23.87668,29.387247 42.98357,68.417737 51.02696,104.234707 4.88995,21.77521 6.00397,32.44926 6.00397,57.53159 0,25.09066 -1.11031,35.72275 -6.0143,57.59481 -7.97302,35.56026 -27.247,74.91597 -51.01663,104.17149 -9.8641,12.14056 -31.88819,33.43409 -43.82999,42.376 -35.17593,26.33941 -74.62491,42.92478 -117.48608,49.39421 -12.4494,1.87911 -47.0367,3.30819 -55.69381,2.30116 z m 37.66146,-48.56266 c 99.30476,-9.68683 177.81956,-87.90539 187.80624,-187.09774 3.65727,-36.32511 -3.04178,-75.05938 -18.73426,-108.32238 C 399.47731,71.842832 290.08842,24.858226 190.12347,58.342508 81.075462,94.869249 21.959766,213.03703 58.390928,321.66585 89.165682,413.42861 179.81459,472.45044 275.62065,463.10491 Z"
       id="path914"
       inkscape:connector-curvature="0"
       sodipodi:nodetypes="sssssssssssssccsscsssscssss" />
  </g>
  <path
     inkscape:connector-curvature="0"
     id="path914-0"
     d="m 66.5,31.5 c 0,0 -7.765766,0.265768 -8.5,1 -0.734234,0.734235 -1,11.666666 -1,17.5 0,5.833334 0.288207,16.788207 1,17.5 0.711793,0.711793 8.5,1 8.5,1 0,0 7.795637,-0.295636 8.5,-1 0.704363,-0.704361 1,-17.5 1,-17.5 0,0 -0.260242,-16.825763 -1,-17.5 -0.739758,-0.674234 -8.5,-1 -8.5,-1 z"
     style="fill:#2394bc;fill-opacity:1;stroke:none;stroke-width:0.19569479;stroke-linecap:square;stroke-miterlimit:10" />
  <path
     style="fill:#2394bc;fill-opacity:1;stroke:none;stroke-width:0.19569479;stroke-linecap:square;stroke-miterlimit:10"
     d="m 33.5,31.5 c 0,0 -7.765766,0.265767 -8.5,1 -0.734235,0.734234 -1,11.666666 -1,17.5 0,5.833334 0.288207,16.788207 1,17.5 0.711793,0.711793 8.5,1 8.5,1 0,0 7.795637,-0.295637 8.5,-1 0.704363,-0.704361 1,-17.5 1,-17.5 0,0 -0.260242,-16.825764 -1,-17.5 -0.739758,-0.674235 -8.5,-1 -8.5,-1 z"
     id="path914-6"
     inkscape:connector-curvature="0" />
</svg>
