<?xml version="1.0" encoding="UTF-8" standalone="no"?>
<!-- Created with Inkscape (http://www.inkscape.org/) -->

<svg
   xmlns:dc="http://purl.org/dc/elements/1.1/"
   xmlns:cc="http://creativecommons.org/ns#"
   xmlns:rdf="http://www.w3.org/1999/02/22-rdf-syntax-ns#"
   xmlns:svg="http://www.w3.org/2000/svg"
   xmlns="http://www.w3.org/2000/svg"
   xmlns:xlink="http://www.w3.org/1999/xlink"
   xmlns:sodipodi="http://sodipodi.sourceforge.net/DTD/sodipodi-0.dtd"
   xmlns:inkscape="http://www.inkscape.org/namespaces/inkscape"
   width="512"
   height="512"
   viewBox="0 0 135.46666 135.46667"
   version="1.1"
   id="svg8"
   inkscape:version="0.92.3 (2405546, 2018-03-11)"
   sodipodi:docname="Logo.svg"
   inkscape:export-filename="/home/gabriel/Bureau/TPE-Cancer/Logo.svg.png"
   inkscape:export-xdpi="384"
   inkscape:export-ydpi="384">
  <defs
     id="defs2">
    <clipPath
       clipPathUnits="userSpaceOnUse"
       id="clipPath4775">
      <use
         x="0"
         y="0"
         xlink:href="#g4771"
         id="use4777"
         width="100%"
         height="100%"
         transform="translate(-32.375707,70.147364)" />
    </clipPath>
  </defs>
  <sodipodi:namedview
     id="base"
     pagecolor="#ffffff"
     bordercolor="#666666"
     borderopacity="1.0"
     inkscape:pageopacity="0.0"
     inkscape:pageshadow="2"
     inkscape:zoom="0.57948104"
     inkscape:cx="223.07374"
     inkscape:cy="195.5843"
     inkscape:document-units="px"
     inkscape:current-layer="text4754"
     showgrid="false"
     showguides="false"
     inkscape:window-width="1920"
     inkscape:window-height="1009"
     inkscape:window-x="0"
     inkscape:window-y="42"
     inkscape:window-maximized="1"
     units="px"
     fit-margin-top="0"
     fit-margin-left="0"
     fit-margin-right="0"
     fit-margin-bottom="0" />
  <metadata
     id="metadata5">
    <rdf:RDF>
      <cc:Work
         rdf:about="">
        <dc:format>image/svg+xml</dc:format>
        <dc:type
           rdf:resource="http://purl.org/dc/dcmitype/StillImage" />
        <dc:title />
      </cc:Work>
    </rdf:RDF>
  </metadata>
  <g
     inkscape:label="Calque 1"
     inkscape:groupmode="layer"
     id="layer1"
     transform="translate(-52.375707,-20.968258)">
    <g
       id="g4771"
       inkscape:label="Clip"
       transform="translate(32.375707,-70.147364)">
      <path
         style="fill:#ff0000;fill-opacity:0.00507615;fill-rule:evenodd;stroke:#9f1c1c;stroke-width:1.34445655;stroke-miterlimit:4;stroke-dasharray:none;stroke-opacity:1"
         d="m 107.34818,163.60628 a 12.70502,30.231515 32.449321 0 0 -5.82868,32.55455 12.70502,30.231515 32.449321 0 0 26.87286,-18.29754 12.70502,30.231515 32.449321 0 0 5.82868,-32.55456 12.70502,30.231515 32.449321 0 0 -26.87286,18.29755 z"
         id="path4688-4-9"
         inkscape:connector-curvature="0" />
      <path
         style="fill:#ff0000;fill-opacity:0.00507615;fill-rule:evenodd;stroke:#db3232;stroke-width:1.34445655;stroke-miterlimit:4;stroke-dasharray:none;stroke-opacity:1"
         d="m 117.70451,157.62425 a 29.6816,12.940408 0 0 1 29.68159,12.9404 29.6816,12.940408 0 0 1 -29.68159,12.94041 29.6816,12.940408 0 0 1 -29.681598,-12.94041 29.6816,12.940408 0 0 1 29.681598,-12.9404 z"
         id="path4688-4-8"
         inkscape:connector-curvature="0" />
      <ellipse
         style="fill:#ff0000;fill-opacity:0.00507615;fill-rule:evenodd;stroke:#e35c5c;stroke-width:1.34464979;stroke-miterlimit:4;stroke-dasharray:none;stroke-opacity:1"
         id="path4688-4"
         cx="6.8389602"
         cy="207.14668"
         rx="12.709452"
         ry="30.22965"
         transform="matrix(0.82789529,-0.56088269,0.54088516,0.84109645,0,0)" />
      <path
         style="fill:#ff5252;fill-opacity:0.00507615;fill-rule:evenodd;stroke:#ed9898;stroke-width:1.34445655;stroke-miterlimit:4;stroke-dasharray:none;stroke-opacity:1"
         d="m 129.42013,170.5544 a 12.607508,30.46534 0 0 1 -12.60751,30.46534 12.607508,30.46534 0 0 1 -12.6075,-30.46534 12.607508,30.46534 0 0 1 12.6075,-30.46534 12.607508,30.46534 0 0 1 12.60751,30.46534 z"
         id="path4688"
         inkscape:connector-curvature="0" />
      <path
         style="color:#000000;font-style:normal;font-variant:normal;font-weight:normal;font-stretch:normal;font-size:medium;line-height:normal;font-family:sans-serif;font-variant-ligatures:normal;font-variant-position:normal;font-variant-caps:normal;font-variant-numeric:normal;font-variant-alternates:normal;font-feature-settings:normal;text-indent:0;text-align:start;text-decoration:none;text-decoration-line:none;text-decoration-style:solid;text-decoration-color:#000000;letter-spacing:normal;word-spacing:normal;text-transform:none;writing-mode:lr-tb;direction:ltr;text-orientation:mixed;dominant-baseline:auto;baseline-shift:baseline;text-anchor:start;white-space:normal;shape-padding:0;clip-rule:nonzero;display:inline;overflow:visible;visibility:visible;opacity:1;isolation:auto;mix-blend-mode:normal;color-interpolation:sRGB;color-interpolation-filters:linearRGB;solid-color:#000000;solid-opacity:1;vector-effect:none;fill:#2c5aa0;fill-opacity:1;fill-rule:nonzero;stroke:none;stroke-width:0.37116727px;stroke-linecap:butt;stroke-linejoin:miter;stroke-miterlimit:4;stroke-dasharray:none;stroke-dashoffset:0;stroke-opacity:1;color-rendering:auto;image-rendering:auto;shape-rendering:auto;text-rendering:auto;enable-background:accumulate"
         d="m 27.474594,106.93549 c -0.476943,13.28708 1.661887,20.89379 5.094185,25.68832 3.432302,4.79454 8.137969,6.74789 12.714511,8.76358 4.57654,2.01567 8.594763,4.30966 11.627886,9.32914 3.033125,5.01947 4.026156,12.85388 2.880707,26.74002 -0.05132,0.62535 0.934639,1.32699 1.314231,-0.0478 1.148913,-13.92815 0.297394,-21.81621 -2.796485,-26.93623 -3.093879,-5.12003 -7.659017,-8.07111 -12.240291,-10.08888 -4.581276,-2.01777 -7.954444,-3.66739 -11.320222,-8.369 -3.365777,-4.70162 -6.100461,-11.74751 -5.625194,-24.988 -0.74593,-1.08738 -1.176482,-0.4753 -1.649328,-0.0911 z"
         id="path3721"
         inkscape:connector-curvature="0"
         sodipodi:nodetypes="csssccsscccc" />
      <path
         style="color:#000000;font-style:normal;font-variant:normal;font-weight:normal;font-stretch:normal;font-size:medium;line-height:normal;font-family:sans-serif;font-variant-ligatures:normal;font-variant-position:normal;font-variant-caps:normal;font-variant-numeric:normal;font-variant-alternates:normal;font-feature-settings:normal;text-indent:0;text-align:start;text-decoration:none;text-decoration-line:none;text-decoration-style:solid;text-decoration-color:#000000;letter-spacing:normal;word-spacing:normal;text-transform:none;writing-mode:lr-tb;direction:ltr;text-orientation:mixed;dominant-baseline:auto;baseline-shift:baseline;text-anchor:start;white-space:normal;shape-padding:0;clip-rule:nonzero;display:inline;overflow:visible;visibility:visible;opacity:1;isolation:auto;mix-blend-mode:normal;color-interpolation:sRGB;color-interpolation-filters:linearRGB;solid-color:#000000;solid-opacity:1;vector-effect:none;fill:#afc6e9;fill-opacity:1;fill-rule:nonzero;stroke:none;stroke-width:0.3711673px;stroke-linecap:butt;stroke-linejoin:miter;stroke-miterlimit:4;stroke-dasharray:none;stroke-dashoffset:0;stroke-opacity:1;color-rendering:auto;image-rendering:auto;shape-rendering:auto;text-rendering:auto;enable-background:accumulate"
         d="m 27.474594,176.94525 c -0.476943,-13.28709 1.661887,-20.89377 5.094185,-25.68831 3.432302,-4.79452 7.497532,-7.73392 12.074073,-9.74959 4.576541,-2.01568 8.701503,-3.4332 11.734625,-8.45267 3.033127,-5.01947 4.872488,-12.72829 3.72704,-26.61442 0.01965,-0.64261 0.830211,-0.72214 1.001597,0.0317 1.148912,13.92814 0.297394,21.81621 -2.796486,26.93622 -3.093878,5.12003 -8.085974,7.63288 -12.667249,9.65065 -4.581275,2.01776 -7.527485,4.10563 -10.893263,8.80723 -3.365777,4.70164 -6.100461,11.74752 -5.625194,24.98801 -0.74593,1.08736 -1.176482,0.47529 -1.649328,0.0911 z"
         id="path3721-0"
         inkscape:connector-curvature="0"
         sodipodi:nodetypes="csssccssccc" />
      <path
         style="color:#000000;font-style:normal;font-variant:normal;font-weight:normal;font-stretch:normal;font-size:medium;line-height:normal;font-family:sans-serif;font-variant-ligatures:normal;font-variant-position:normal;font-variant-caps:normal;font-variant-numeric:normal;font-variant-alternates:normal;font-feature-settings:normal;text-indent:0;text-align:start;text-decoration:none;text-decoration-line:none;text-decoration-style:solid;text-decoration-color:#000000;letter-spacing:normal;word-spacing:normal;text-transform:none;writing-mode:lr-tb;direction:ltr;text-orientation:mixed;dominant-baseline:auto;baseline-shift:baseline;text-anchor:start;white-space:normal;shape-padding:0;clip-rule:nonzero;display:inline;overflow:visible;visibility:visible;opacity:1;isolation:auto;mix-blend-mode:normal;color-interpolation:sRGB;color-interpolation-filters:linearRGB;solid-color:#000000;solid-opacity:1;vector-effect:none;fill:#162d50;fill-opacity:1;fill-rule:nonzero;stroke:none;stroke-width:0.11834911px;stroke-linecap:butt;stroke-linejoin:miter;stroke-miterlimit:4;stroke-dasharray:none;stroke-dashoffset:0;stroke-opacity:1;color-rendering:auto;image-rendering:auto;shape-rendering:auto;text-rendering:auto;enable-background:accumulate"
         d="m 30.449159,120.12285 c 4.805784,-0.13401 7.706376,0.22314 9.555332,0.92841 2.224722,0.84859 4.109372,3.45434 5.207537,4.42618 1.6725,1.48012 1.599461,1.63386 3.940312,2.33891 2.339933,0.70477 2.686717,0.82187 7.445002,1.00343 0.226178,-0.0134 0.555431,0.8824 0.05821,0.98918 -5.037649,0.32296 -8.871874,-0.96224 -10.723708,-1.83189 -1.851851,-0.86971 -2.027957,-1.36342 -3.007478,-2.39487 -1.013134,-1.06686 -2.194431,-2.11979 -3.894946,-3.0659 -1.700521,-0.94612 -3.758342,-2.06343 -8.547272,-1.92985 -0.393288,-0.20979 -0.171906,-0.33069 -0.03296,-0.4636 z"
         id="path3721-4"
         inkscape:connector-curvature="0"
         sodipodi:nodetypes="csssccsscccc" />
      <path
         style="color:#000000;font-style:normal;font-variant:normal;font-weight:normal;font-stretch:normal;font-size:medium;line-height:normal;font-family:sans-serif;font-variant-ligatures:normal;font-variant-position:normal;font-variant-caps:normal;font-variant-numeric:normal;font-variant-alternates:normal;font-feature-settings:normal;text-indent:0;text-align:start;text-decoration:none;text-decoration-line:none;text-decoration-style:solid;text-decoration-color:#000000;letter-spacing:normal;word-spacing:normal;text-transform:none;writing-mode:lr-tb;direction:ltr;text-orientation:mixed;dominant-baseline:auto;baseline-shift:baseline;text-anchor:start;white-space:normal;shape-padding:0;clip-rule:nonzero;display:inline;overflow:visible;visibility:visible;opacity:1;isolation:auto;mix-blend-mode:normal;color-interpolation:sRGB;color-interpolation-filters:linearRGB;solid-color:#000000;solid-opacity:1;vector-effect:none;fill:#162d50;fill-opacity:1;fill-rule:nonzero;stroke:none;stroke-width:0.06981876px;stroke-linecap:butt;stroke-linejoin:miter;stroke-miterlimit:4;stroke-dasharray:none;stroke-dashoffset:0;stroke-opacity:1;color-rendering:auto;image-rendering:auto;shape-rendering:auto;text-rendering:auto;enable-background:accumulate"
         d="m 34.291295,130.90774 c 3.536316,-0.0635 5.670705,0.1055 7.031251,0.43909 1.637053,0.40136 3.023863,1.63379 3.831942,2.09344 1.230704,0.70003 1.176959,0.77275 2.899464,1.10622 1.721829,0.33333 1.97701,0.38869 5.478372,0.47457 0.166432,-0.007 0.408711,0.41734 0.04284,0.46786 -3.706933,0.15274 -6.52833,-0.45512 -7.890994,-0.86643 -1.362677,-0.41135 -1.492264,-0.64485 -2.21304,-1.13268 -0.74551,-0.5046 -1.614761,-1.00258 -2.866078,-1.45006 -1.251321,-0.44749 -2.76556,-0.97592 -6.289475,-0.91275 -0.289399,-0.0993 -0.126496,-0.15641 -0.02425,-0.21926 z"
         id="path3721-4-4"
         inkscape:connector-curvature="0"
         sodipodi:nodetypes="csssccsscccc" />
      <path
         style="color:#000000;font-style:normal;font-variant:normal;font-weight:normal;font-stretch:normal;font-size:medium;line-height:normal;font-family:sans-serif;font-variant-ligatures:normal;font-variant-position:normal;font-variant-caps:normal;font-variant-numeric:normal;font-variant-alternates:normal;font-feature-settings:normal;text-indent:0;text-align:start;text-decoration:none;text-decoration-line:none;text-decoration-style:solid;text-decoration-color:#000000;letter-spacing:normal;word-spacing:normal;text-transform:none;writing-mode:lr-tb;direction:ltr;text-orientation:mixed;dominant-baseline:auto;baseline-shift:baseline;text-anchor:start;white-space:normal;shape-padding:0;clip-rule:nonzero;display:inline;overflow:visible;visibility:visible;opacity:1;isolation:auto;mix-blend-mode:normal;color-interpolation:sRGB;color-interpolation-filters:linearRGB;solid-color:#000000;solid-opacity:1;vector-effect:none;fill:#162d50;fill-opacity:1;fill-rule:nonzero;stroke:none;stroke-width:0.11834911px;stroke-linecap:butt;stroke-linejoin:miter;stroke-miterlimit:4;stroke-dasharray:none;stroke-dashoffset:0;stroke-opacity:1;color-rendering:auto;image-rendering:auto;shape-rendering:auto;text-rendering:auto;enable-background:accumulate"
         d="m 31.598471,163.92392 c 4.805783,0.13403 7.706376,-0.22313 9.555332,-0.92841 2.224722,-0.8486 4.109371,-3.45433 5.207536,-4.4262 1.672502,-1.4801 1.599462,-1.63383 3.940314,-2.3389 2.339933,-0.70475 2.686716,-0.82186 7.445001,-1.00341 0.226178,0.0134 0.55543,-0.88241 0.05821,-0.9892 -5.03765,-0.32295 -8.871875,0.96226 -10.723708,1.8319 -1.851851,0.8697 -2.027958,1.36343 -3.007478,2.39487 -1.013134,1.06687 -2.19443,2.11978 -3.894945,3.06591 -1.700522,0.94611 -3.758344,2.06341 -8.547274,1.92983 -0.393287,0.20978 -0.171905,0.3307 -0.03296,0.46361 z"
         id="path3721-4-48"
         inkscape:connector-curvature="0"
         sodipodi:nodetypes="csssccsscccc" />
      <path
         style="color:#000000;font-style:normal;font-variant:normal;font-weight:normal;font-stretch:normal;font-size:medium;line-height:normal;font-family:sans-serif;font-variant-ligatures:normal;font-variant-position:normal;font-variant-caps:normal;font-variant-numeric:normal;font-variant-alternates:normal;font-feature-settings:normal;text-indent:0;text-align:start;text-decoration:none;text-decoration-line:none;text-decoration-style:solid;text-decoration-color:#000000;letter-spacing:normal;word-spacing:normal;text-transform:none;writing-mode:lr-tb;direction:ltr;text-orientation:mixed;dominant-baseline:auto;baseline-shift:baseline;text-anchor:start;white-space:normal;shape-padding:0;clip-rule:nonzero;display:inline;overflow:visible;visibility:visible;opacity:1;isolation:auto;mix-blend-mode:normal;color-interpolation:sRGB;color-interpolation-filters:linearRGB;solid-color:#000000;solid-opacity:1;vector-effect:none;fill:#162d50;fill-opacity:1;fill-rule:nonzero;stroke:none;stroke-width:0.06981876px;stroke-linecap:butt;stroke-linejoin:miter;stroke-miterlimit:4;stroke-dasharray:none;stroke-dashoffset:0;stroke-opacity:1;color-rendering:auto;image-rendering:auto;shape-rendering:auto;text-rendering:auto;enable-background:accumulate"
         d="m 35.440606,153.13904 c 3.536316,0.0635 5.670707,-0.10551 7.031253,-0.4391 1.637052,-0.40136 3.023862,-1.63377 3.831942,-2.09342 1.230703,-0.70005 1.176956,-0.77279 2.899463,-1.10625 1.72183,-0.33332 1.977009,-0.3887 5.478371,-0.47458 0.166433,0.007 0.408712,-0.41732 0.04284,-0.46784 -3.706934,-0.15273 -6.52833,0.45511 -7.890994,0.86642 -1.362678,0.41134 -1.492264,0.64486 -2.21304,1.1327 -0.745511,0.50459 -1.614761,1.00257 -2.866078,1.45005 -1.251322,0.44748 -2.76556,0.97592 -6.289476,0.91275 -0.289397,0.0993 -0.126495,0.15642 -0.02425,0.21927 z"
         id="path3721-4-4-1"
         inkscape:connector-curvature="0"
         sodipodi:nodetypes="csssccsscccc" />
      <g
         aria-label="adr    n"
         style="font-style:normal;font-weight:normal;font-size:10.58333302px;line-height:1.25;font-family:sans-serif;letter-spacing:0px;word-spacing:0px;fill:#0055d4;fill-opacity:1;stroke:#162d50;stroke-width:0.26458332"
         id="text3828"
         transform="matrix(1.1295902,0,0,1.1594169,4.8165278,-50.937449)">
        <path
           d="m 63.781215,195.07571 q 0.4064,0 0.5588,-0.49107 0.169334,-0.508 0.169334,-1.20226 h 0.237066 q 0,1.49013 -0.541866,1.96426 -0.524934,0.47414 -0.948267,0.59267 -0.423333,0.13547 -1.083733,0.13547 -0.728134,0 -1.303867,-0.37254 -0.5588,-0.37253 -0.677333,-0.99906 -0.270934,0.69426 -0.9144,1.04986 -0.626533,0.33867 -1.642533,0.33867 -1.083734,0 -1.761067,-0.59267 -0.677333,-0.59266 -0.677333,-1.64253 0,-0.84667 0.423333,-1.35467 0.423333,-0.52493 0.8636,-0.64346 0.440267,-0.11854 1.354667,-0.2032 0.9144,-0.0847 1.337733,-0.18627 0.440266,-0.11853 0.626533,-0.23707 0.186267,-0.13546 0.186267,-0.44026 l -0.01693,-1.54094 q 0,-0.6604 -0.169333,-0.94826 -0.169333,-0.28787 -0.7112,-0.28787 -0.338666,0 -0.575733,0.1524 -0.220133,0.1524 -0.220133,0.38947 0,0.18626 0.3556,0.47413 0.372533,0.27093 0.372533,0.82973 0,0.52494 -0.474133,0.93134 -0.4572,0.4064 -1.507067,0.4064 -0.575733,0 -1.016,-0.3048 -0.423333,-0.32174 -0.423333,-0.84667 0,-1.04987 1.1684,-1.6764 1.185333,-0.62653 2.810933,-0.62653 1.3716,0 2.523066,0.57573 1.151467,0.5588 1.151467,1.74413 v 3.87774 q 0,0.54186 0.1016,0.82973 0.08467,0.3048 0.423333,0.3048 z m -3.793066,-0.49107 v -3.23426 l -0.0508,-0.0169 q -0.1524,0.2032 -0.575734,0.38947 -0.406399,0.16933 -0.575733,0.33867 -0.1524,0.16933 -0.254,0.6604 -0.08467,0.47413 -0.08467,0.98213 0,0.762 0.118533,1.2192 0.118533,0.4572 0.541867,0.4572 0.321733,0 0.558799,-0.254 0.254,-0.254 0.321734,-0.54187 z"
           style="font-style:normal;font-variant:normal;font-weight:normal;font-stretch:normal;font-size:16.93333244px;font-family:Elephant;-inkscape-font-specification:'Elephant, Normal';font-variant-ligatures:normal;font-variant-caps:normal;font-variant-numeric:normal;font-feature-settings:normal;text-align:start;letter-spacing:0.6270625px;word-spacing:1.73831213px;writing-mode:lr-tb;text-anchor:start;fill:#295389;fill-opacity:1;stroke:#162d50;stroke-width:0.26458332"
           id="path837"
           inkscape:connector-curvature="0" />
        <path
           d="m 71.151449,189.06438 q -0.06773,-0.42334 -0.372533,-0.64347 -0.3048,-0.22013 -0.7112,-0.22013 -0.524934,0 -0.795867,0.508 -0.254,0.49106 -0.338667,1.13453 -0.06773,0.62653 -0.08467,1.15147 -0.01693,0.508 -0.01693,0.94826 v 0.762 q 0,0.32174 0.06773,1.1176 0.08467,0.79587 0.338666,1.30387 0.270934,0.508 0.8128,0.508 0.931334,0 1.083734,-0.89747 0.03387,-0.38946 0.0508,-1.3716 0.01693,-0.99906 0.01693,-1.49013 v -1.55787 q 0,-0.7112 -0.0508,-1.25306 z m 0.0508,-1.2192 v -2.16747 l -0.03387,-0.77893 q 0,-0.5588 -0.169333,-0.74507 -0.169333,-0.18627 -0.728133,-0.254 l -0.795867,-0.0508 v -0.27093 h 4.9784 v 10.48173 l 0.01693,0.69427 q 0,0.4572 0.1524,0.64346 0.169333,0.16934 0.626533,0.22014 l 0.541867,0.0339 v 0.27094 H 71.23611 v -0.84667 q -0.186267,0.33867 -0.6096,0.67733 -0.4064,0.33867 -1.557867,0.33867 -1.6256,0 -2.6416,-1.13453 -1.016,-1.13454 -1.016,-3.08187 0,-1.8796 1.016,-3.01413 1.016,-1.13454 2.6416,-1.13454 1.185333,0 1.5748,0.32174 0.389467,0.32173 0.575733,0.67733 z"
           style="font-style:normal;font-variant:normal;font-weight:normal;font-stretch:normal;font-size:16.93333244px;font-family:Elephant;-inkscape-font-specification:'Elephant, Normal';font-variant-ligatures:normal;font-variant-caps:normal;font-variant-numeric:normal;font-feature-settings:normal;text-align:start;letter-spacing:0.6270625px;word-spacing:1.73831213px;writing-mode:lr-tb;text-anchor:start;fill:#295389;fill-opacity:1;stroke:#162d50;stroke-width:0.26458332"
           id="path839"
           inkscape:connector-curvature="0" />
        <path
           d="m 76.402898,195.92238 v -0.27094 l 0.4572,-0.0169 q 0.491067,-0.0508 0.592667,-0.23707 0.1016,-0.18626 0.1016,-0.8128 l 0.01693,-0.77893 v -4.04707 l -0.01693,-0.69426 q -0.03387,-0.4064 -0.1016,-0.6096 -0.06773,-0.2032 -0.6096,-0.254 l -0.440267,-0.0339 v -0.27093 h 4.385733 v 1.4224 q 0.118534,-0.3048 0.508,-0.9144 0.389467,-0.6096 1.778,-0.6096 0.8128,0 1.3716,0.57573 0.575733,0.5588 0.575733,1.33773 0,0.77894 -0.541866,1.30387 -0.524934,0.508 -1.303867,0.508 -0.643467,0 -1.1176,-0.44027 -0.4572,-0.4572 -0.4572,-1.03293 0,-0.42333 0.1524,-0.77893 0.169334,-0.32174 0.338667,-0.6604 -0.08467,-0.11854 -0.169333,-0.11854 -0.440267,0 -0.778934,0.52494 -0.321733,0.52493 -0.321733,0.98213 v 3.9116 l 0.01693,0.84667 q 0,0.47413 0.118534,0.64346 0.118533,0.16934 0.592666,0.22014 l 0.508,0.0339 v 0.27094 z"
           style="font-style:normal;font-variant:normal;font-weight:normal;font-stretch:normal;font-size:16.93333244px;font-family:Elephant;-inkscape-font-specification:'Elephant, Normal';font-variant-ligatures:normal;font-variant-caps:normal;font-variant-numeric:normal;font-feature-settings:normal;text-align:start;letter-spacing:0.6270625px;word-spacing:1.73831213px;writing-mode:lr-tb;text-anchor:start;fill:#295389;fill-opacity:1;stroke:#162d50;stroke-width:0.26458332"
           id="path841"
           inkscape:connector-curvature="0" />
        <path
           d="m 118.6939,190.35131 -0.0169,-0.69427 q 0,-1.3208 -0.93133,-1.3208 -0.59267,0 -0.84667,0.37254 -0.23706,0.37253 -0.38946,0.762 v 4.33493 l 0.0169,0.77893 q 0,0.69427 0.11853,0.88054 0.13547,0.18626 0.762,0.18626 v 0.27094 h -5.26626 v -0.27094 l 0.4064,-0.0169 q 0.49106,-0.0508 0.59266,-0.23707 0.1016,-0.18626 0.1016,-0.8128 l 0.0169,-0.77893 v -4.04707 l -0.0169,-0.69426 q -0.0339,-0.4064 -0.1016,-0.6096 -0.0677,-0.2032 -0.6096,-0.254 l -0.38946,-0.0339 v -0.27093 h 4.30106 v 1.27 q 0.18627,-0.47414 0.6604,-0.94827 0.49107,-0.49107 1.8796,-0.49107 1.20227,0 2.0828,0.67734 0.88054,0.67733 0.88054,1.59173 v 3.81 l 0.0169,0.77893 q 0,0.6096 0.1016,0.8128 0.1016,0.18627 0.59267,0.23707 l 0.37253,0.0169 v 0.27094 h -5.2324 v -0.27094 q 0.6096,0 0.74507,-0.18626 0.13546,-0.2032 0.13546,-0.88054 l 0.0169,-0.77893 z"
           style="font-style:normal;font-variant:normal;font-weight:normal;font-stretch:normal;font-size:16.93333244px;font-family:Elephant;-inkscape-font-specification:'Elephant, Normal';font-variant-ligatures:normal;font-variant-caps:normal;font-variant-numeric:normal;font-feature-settings:normal;text-align:start;letter-spacing:0.6270625px;word-spacing:1.73831213px;writing-mode:lr-tb;text-anchor:start;fill:#295389;fill-opacity:1;stroke:#162d50;stroke-width:0.26458332"
           id="path843"
           inkscape:connector-curvature="0" />
      </g>
      <path
         style="fill:#cc6565;fill-opacity:1;stroke:#782020;stroke-width:0.53214902;stroke-miterlimit:4;stroke-dasharray:none;stroke-opacity:1"
         d="m 125.64568,170.7044 a 8.5391639,8.764639 0 0 1 -8.53916,8.76464 8.5391639,8.764639 0 0 1 -8.53915,-8.76464 8.5391639,8.764639 0 0 1 8.53915,-8.76464 8.5391639,8.764639 0 0 1 8.53916,8.76464 z"
         id="path3850"
         inkscape:connector-curvature="0" />
      <g
         aria-label="TPE"
         style="font-style:normal;font-weight:normal;font-size:10.58333302px;line-height:1.25;font-family:sans-serif;letter-spacing:0px;word-spacing:0px;fill:#000000;fill-opacity:1;stroke:#0f173a;stroke-width:0.1;stroke-miterlimit:4;stroke-dasharray:none;stroke-opacity:1"
         id="text4754"
         transform="matrix(1.1295902,0,0,1.1594169,4.8165278,-50.937449)">
        <path
           d="m 43.262783,207.07286 h 17.836445 v 7.24747 h -0.383822 q -0.6096,-1.37725 -1.467556,-2.91254 -0.835378,-1.55786 -1.761067,-2.70933 -0.925689,-1.15147 -1.6256,-1.15147 l -0.903111,-0.0452 v 13.16284 l 0.04516,1.03858 q 0.06773,0.72249 0.293511,1.016 0.248355,0.27093 0.745067,0.33867 0.496711,0.0452 0.903111,0.0677 0.4064,0.0226 0.722489,0.0451 v 0.36125 H 46.626872 v -0.36125 l 1.490134,-0.0677 q 0.677333,-0.0677 0.925688,-0.33867 0.248356,-0.27093 0.316089,-1.016 l 0.04516,-1.03857 v -13.208 l -0.880533,0.0452 q -0.722489,0 -1.603023,1.08374 -0.880533,1.06115 -1.783644,2.70933 -0.880534,1.6256 -1.490134,2.98027 h -0.383822 z"
           style="font-style:normal;font-variant:normal;font-weight:normal;font-stretch:normal;font-size:22.57777786px;font-family:Elephant;-inkscape-font-specification:'Elephant, Normal';font-variant-ligatures:normal;font-variant-caps:normal;font-variant-numeric:normal;font-feature-settings:normal;text-align:start;writing-mode:lr-tb;text-anchor:start;fill:#1a2563;fill-opacity:1;stroke:#0f173a;stroke-width:0.1;stroke-miterlimit:4;stroke-dasharray:none;stroke-opacity:1"
           id="path830"
           inkscape:connector-curvature="0" />
        <path
           d="M 77.833676,226.53206 H 66.81572 v -0.36125 h 0.699912 q 0.474133,-0.0677 0.925688,-0.11288 0.451556,-0.0677 0.699912,-0.33867 0.270933,-0.29351 0.338666,-1.016 l 0.04516,-1.03858 v -10.70187 l -0.04516,-1.03857 q -0.06773,-0.72249 -0.338666,-1.016 -0.270934,-0.29351 -0.767645,-0.36125 -0.474133,-0.0677 -0.880533,-0.0677 -0.383822,-0.0226 -0.699911,-0.0452 v -0.36124 l 10.543822,-0.0226 q 3.680178,0 4.8768,0.8128 1.2192,0.8128 1.693333,1.76107 0.474134,0.92569 0.474134,2.00942 0,1.016 -0.316089,1.94169 -0.316089,0.92569 -0.970845,1.53529 -0.654755,0.58702 -1.6256,0.88053 -0.970844,0.29351 -2.506133,0.29351 -1.467556,0 -2.370667,0.0226 -0.903111,0 -1.512711,0.0226 v 4.33493 l 0.04516,1.03858 q 0.06773,0.72249 0.316089,1.016 0.270933,0.27093 0.767644,0.33867 0.496711,0.0677 0.970845,0.0903 0.474133,0 0.654755,0.0226 z m 0.903111,-11.94365 q 0,-1.28693 -0.338666,-2.50613 -0.338667,-1.2192 -1.038578,-1.39982 -0.677334,-0.2032 -1.332089,-0.2032 -0.632178,-0.0226 -0.948267,-0.0226 v 8.44409 q 0.451556,-0.0226 0.925689,-0.0452 0.474133,-0.0226 1.241778,-0.15804 0.790222,-0.15804 1.128889,-1.35467 0.361244,-1.2192 0.361244,-2.75449 z"
           style="font-style:normal;font-variant:normal;font-weight:normal;font-stretch:normal;font-size:22.57777786px;font-family:Elephant;-inkscape-font-specification:'Elephant, Normal';font-variant-ligatures:normal;font-variant-caps:normal;font-variant-numeric:normal;font-feature-settings:normal;text-align:start;writing-mode:lr-tb;text-anchor:start;fill:#1a2563;fill-opacity:1;stroke:#0f173a;stroke-width:0.1;stroke-miterlimit:4;stroke-dasharray:none;stroke-opacity:1"
           id="path832"
           inkscape:connector-curvature="0" />
        <path
           d="m 98.42363,223.0805 q 0.948266,-0.0226 1.94169,-0.0226 0.99342,-0.0226 2.09973,-0.15805 1.10631,-0.15804 2.73191,-2.2352 1.6256,-2.09973 2.39325,-4.31235 h 0.36124 v 7.17973 H 90.205318 v -0.36125 q 0.293511,0 0.677334,-0.0226 0.383822,-0.0452 0.857955,-0.0903 0.496711,-0.0677 0.745067,-0.33867 0.270933,-0.29351 0.338667,-1.016 l 0.04515,-1.03858 v -10.70187 l -0.04515,-1.03857 q -0.06773,-0.72249 -0.338667,-1.016 -0.270933,-0.29351 -0.767644,-0.36125 -0.474134,-0.0677 -0.880534,-0.0677 -0.383822,-0.0226 -0.699911,-0.0452 V 207.0728 H 107.4999 v 6.68302 h -0.36125 q -1.15146,-2.52871 -2.79964,-4.24462 -1.64818,-1.73849 -2.77707,-1.85138 -1.10631,-0.11289 -1.873955,-0.13547 -0.767644,-0.0226 -1.016,-0.0226 h -0.2032 l -0.04515,7.40551 0.948266,-0.0452 q 1.309519,-0.13546 1.964269,-1.2192 0.67734,-1.10631 0.67734,-2.59644 h 0.42897 v 8.21831 h -0.42897 q 0,-1.51271 -0.67734,-2.6416 -0.65475,-1.12889 -1.964269,-1.26436 l -0.948266,-0.0452 z"
           style="font-style:normal;font-variant:normal;font-weight:normal;font-stretch:normal;font-size:22.57777786px;font-family:Elephant;-inkscape-font-specification:'Elephant, Normal';font-variant-ligatures:normal;font-variant-caps:normal;font-variant-numeric:normal;font-feature-settings:normal;text-align:start;writing-mode:lr-tb;text-anchor:start;fill:#1a2563;fill-opacity:1;stroke:#0f173a;stroke-width:0.1;stroke-miterlimit:4;stroke-dasharray:none;stroke-opacity:1"
           id="path834"
           inkscape:connector-curvature="0" />
      </g>
    </g>
  </g>
</svg>
