<?xml version="1.0" encoding="UTF-8" standalone="no"?>
<!-- Created with Inkscape (http://www.inkscape.org/) -->

<svg
   xmlns:dc="http://purl.org/dc/elements/1.1/"
   xmlns:cc="http://creativecommons.org/ns#"
   xmlns:rdf="http://www.w3.org/1999/02/22-rdf-syntax-ns#"
   xmlns:svg="http://www.w3.org/2000/svg"
   xmlns="http://www.w3.org/2000/svg"
   xmlns:sodipodi="http://sodipodi.sourceforge.net/DTD/sodipodi-0.dtd"
   xmlns:inkscape="http://www.inkscape.org/namespaces/inkscape"
   width="100"
   height="40.000004"
   viewBox="0 0 26.458333 10.583335"
   version="1.1"
   id="svg919"
   inkscape:version="0.92.4 (5da689c313, 2019-01-14)"
   sodipodi:docname="Conclusion.svg">
  <defs
     id="defs913" />
  <sodipodi:namedview
     id="base"
     pagecolor="#ffffff"
     bordercolor="#666666"
     borderopacity="1.0"
     inkscape:pageopacity="0.0"
     inkscape:pageshadow="2"
     inkscape:zoom="2.2394531"
     inkscape:cx="-13.610131"
     inkscape:cy="-64.904418"
     inkscape:document-units="px"
     inkscape:current-layer="layer1"
     showgrid="false"
     units="px"
     fit-margin-top="0"
     fit-margin-left="0"
     fit-margin-right="0"
     fit-margin-bottom="0"
     inkscape:window-width="1920"
     inkscape:window-height="1017"
     inkscape:window-x="-8"
     inkscape:window-y="-8"
     inkscape:window-maximized="1" />
  <metadata
     id="metadata916">
    <rdf:RDF>
      <cc:Work
         rdf:about="">
        <dc:format>image/svg+xml</dc:format>
        <dc:type
           rdf:resource="http://purl.org/dc/dcmitype/StillImage" />
        <dc:title />
      </cc:Work>
    </rdf:RDF>
  </metadata>
  <g
     inkscape:label="Calque 1"
     inkscape:groupmode="layer"
     id="layer1"
     transform="translate(-48.915841,-95.585303)">
    <g
       transform="translate(19.811674,-124.68554)"
       id="g1099">
      <path
         style="fill:#9fc5e8;fill-opacity:1;stroke:#073762;stroke-width:0.52915454;stroke-linecap:round;stroke-linejoin:round;stroke-miterlimit:4;stroke-dasharray:none;stroke-opacity:1"
         d="m 29.368744,220.53542 h 25.92918 v 10.05418 h -25.92918 z"
         id="rect10-1-7-1-6-4" />
      <g
         aria-label="Conclusion"
         transform="scale(1.014467,0.98573931)"
         style="font-style:normal;font-variant:normal;font-weight:600;font-stretch:normal;font-size:4.21588087px;line-height:1.25;font-family:Cabin;-inkscape-font-specification:'Cabin, Semi-Bold';font-variant-ligatures:normal;font-variant-caps:normal;font-variant-numeric:normal;font-feature-settings:normal;text-align:start;letter-spacing:0px;word-spacing:0px;writing-mode:lr-tb;text-anchor:start;fill:#000000;fill-opacity:1;stroke:none;stroke-width:0.26258856"
         id="text819-2-5-7-3-8">
        <path
           d="m 33.450102,230.43616 q -0.438452,0 -0.779938,-0.18972 -0.341487,-0.18971 -0.535417,-0.53541 -0.189715,-0.34992 -0.189715,-0.80945 0,-0.45953 0.193931,-0.80524 0.198146,-0.34991 0.543848,-0.53963 0.345703,-0.18971 0.784154,-0.18971 0.219226,0 0.417372,0.0464 0.198147,0.0464 0.354134,0.12648 l -0.05059,0.46375 q -0.366782,-0.17286 -0.725132,-0.17286 -0.311975,0 -0.535416,0.13913 -0.219226,0.13491 -0.333055,0.37943 -0.113829,0.2403 -0.113829,0.55228 0,0.31197 0.109613,0.55649 0.113829,0.24031 0.333055,0.37943 0.219225,0.13491 0.531201,0.13491 0.198146,0 0.370997,-0.0422 0.177067,-0.0422 0.362566,-0.12647 l 0.05059,0.45953 q -0.354134,0.17285 -0.788369,0.17285 z"
           style="font-style:normal;font-variant:normal;font-weight:600;font-stretch:normal;font-size:4.21588087px;font-family:Cabin;-inkscape-font-specification:'Cabin, Semi-Bold';font-variant-ligatures:normal;font-variant-caps:normal;font-variant-numeric:normal;font-feature-settings:normal;text-align:start;writing-mode:lr-tb;text-anchor:start;fill:#000000;fill-opacity:1;stroke-width:0.26258856"
           id="path12" />
        <path
           d="m 35.505805,230.4193 q -0.324623,0 -0.564928,-0.14334 -0.240306,-0.14756 -0.370998,-0.3963 -0.126476,-0.24873 -0.126476,-0.54806 0,-0.29933 0.126476,-0.54807 0.130692,-0.24873 0.370998,-0.39207 0.240305,-0.14756 0.564928,-0.14756 0.328838,0 0.569144,0.14756 0.240305,0.14334 0.366781,0.39207 0.126477,0.24874 0.126477,0.54807 0,0.29933 -0.126477,0.54806 -0.126476,0.24874 -0.366781,0.3963 -0.240306,0.14334 -0.569144,0.14334 z m 0,-0.3963 q 0.274032,0 0.425804,-0.1855 0.155987,-0.1855 0.155987,-0.5059 0,-0.31619 -0.155987,-0.50169 -0.151772,-0.18972 -0.425804,-0.18972 -0.274033,0 -0.425804,0.18972 -0.151772,0.1855 -0.151772,0.50169 0,0.3204 0.151772,0.5059 0.151771,0.1855 0.425804,0.1855 z"
           style="font-style:normal;font-variant:normal;font-weight:600;font-stretch:normal;font-size:4.21588087px;font-family:Cabin;-inkscape-font-specification:'Cabin, Semi-Bold';font-variant-ligatures:normal;font-variant-caps:normal;font-variant-numeric:normal;font-feature-settings:normal;text-align:start;writing-mode:lr-tb;text-anchor:start;fill:#000000;fill-opacity:1;stroke-width:0.26258856"
           id="path14" />
        <path
           d="m 37.986851,228.24812 q 0.40894,0 0.611303,0.25717 0.202362,0.25716 0.202362,0.70826 v 1.16359 h -0.467963 v -1.13408 q 0,-0.31197 -0.109613,-0.45531 -0.105397,-0.14334 -0.354134,-0.14334 -0.295111,0 -0.455315,0.20658 v 1.52615 h -0.472179 v -2.09108 h 0.417373 l 0.01686,0.17285 q 0.269817,-0.21079 0.611303,-0.21079 z"
           style="font-style:normal;font-variant:normal;font-weight:600;font-stretch:normal;font-size:4.21588087px;font-family:Cabin;-inkscape-font-specification:'Cabin, Semi-Bold';font-variant-ligatures:normal;font-variant-caps:normal;font-variant-numeric:normal;font-feature-settings:normal;text-align:start;writing-mode:lr-tb;text-anchor:start;fill:#000000;fill-opacity:1;stroke-width:0.26258856"
           id="path16" />
        <path
           d="m 40.249461,230.4193 q -0.345702,0 -0.594439,-0.14334 -0.244521,-0.14334 -0.370997,-0.38787 -0.126477,-0.24452 -0.126477,-0.54806 0,-0.31198 0.122261,-0.56071 0.126476,-0.24874 0.375213,-0.39208 0.248737,-0.14334 0.615519,-0.14334 0.316191,0 0.564928,0.13069 l -0.05059,0.38786 q -0.244521,-0.11804 -0.484826,-0.11804 -0.316191,0 -0.489042,0.1855 -0.172851,0.1855 -0.172851,0.50169 0,0.31197 0.172851,0.50169 0.172851,0.18971 0.48061,0.18971 0.261385,0 0.497474,-0.13491 l 0.05059,0.39208 q -0.109613,0.0632 -0.265601,0.10118 -0.155988,0.0379 -0.324623,0.0379 z"
           style="font-style:normal;font-variant:normal;font-weight:600;font-stretch:normal;font-size:4.21588087px;font-family:Cabin;-inkscape-font-specification:'Cabin, Semi-Bold';font-variant-ligatures:normal;font-variant-caps:normal;font-variant-numeric:normal;font-feature-settings:normal;text-align:start;writing-mode:lr-tb;text-anchor:start;fill:#000000;fill-opacity:1;stroke-width:0.26258856"
           id="path18" />
        <path
           d="m 41.733781,230.4193 q -0.269817,0 -0.404725,-0.14756 -0.130692,-0.15177 -0.130692,-0.38365 v -2.67286 h 0.467963 v 2.45364 q 0,0.17707 0.02108,0.25295 0.02108,0.0717 0.07589,0.0927 0.05481,0.0211 0.185499,0.0211 l -0.04637,0.38365 z"
           style="font-style:normal;font-variant:normal;font-weight:600;font-stretch:normal;font-size:4.21588087px;font-family:Cabin;-inkscape-font-specification:'Cabin, Semi-Bold';font-variant-ligatures:normal;font-variant-caps:normal;font-variant-numeric:normal;font-feature-settings:normal;text-align:start;writing-mode:lr-tb;text-anchor:start;fill:#000000;fill-opacity:1;stroke-width:0.26258856"
           id="path20" />
        <path
           d="m 44.039868,228.28606 v 2.09108 h -0.434236 l -0.02108,-0.16021 q -0.09275,0.0927 -0.227658,0.14756 -0.130692,0.0548 -0.278248,0.0548 -0.434236,0 -0.640814,-0.25296 -0.206578,-0.25295 -0.206578,-0.72513 v -1.15515 h 0.472178 v 1.11721 q 0,0.31197 0.101182,0.46374 0.105397,0.15178 0.33727,0.15178 0.274032,0 0.425804,-0.19815 v -1.53458 z"
           style="font-style:normal;font-variant:normal;font-weight:600;font-stretch:normal;font-size:4.21588087px;font-family:Cabin;-inkscape-font-specification:'Cabin, Semi-Bold';font-variant-ligatures:normal;font-variant-caps:normal;font-variant-numeric:normal;font-feature-settings:normal;text-align:start;writing-mode:lr-tb;text-anchor:start;fill:#000000;fill-opacity:1;stroke-width:0.26258856"
           id="path22" />
        <path
           d="m 45.135865,230.4193 q -0.383646,0 -0.712484,-0.16442 l 0.04637,-0.41738 q 0.324623,0.2108 0.649246,0.2108 0.172851,0 0.261385,-0.0548 0.09275,-0.059 0.09275,-0.17285 0,-0.12648 -0.09275,-0.18971 -0.09275,-0.0632 -0.303544,-0.13913 -0.307759,-0.1054 -0.467963,-0.2403 -0.155987,-0.13491 -0.155987,-0.39208 0,-0.26982 0.202362,-0.44267 0.206578,-0.17285 0.577576,-0.17285 0.345702,0 0.619734,0.15177 l -0.04637,0.40894 q -0.139124,-0.10118 -0.274033,-0.15598 -0.134908,-0.0548 -0.290895,-0.0548 -0.155988,0 -0.240306,0.0632 -0.08432,0.059 -0.08432,0.17285 0,0.0843 0.04637,0.13912 0.04638,0.0548 0.130693,0.0927 0.08853,0.0379 0.274032,0.1054 0.282464,0.1054 0.43002,0.24452 0.151772,0.13491 0.151772,0.38364 0,0.28247 -0.202363,0.45532 -0.202362,0.16864 -0.611302,0.16864 z"
           style="font-style:normal;font-variant:normal;font-weight:600;font-stretch:normal;font-size:4.21588087px;font-family:Cabin;-inkscape-font-specification:'Cabin, Semi-Bold';font-variant-ligatures:normal;font-variant-caps:normal;font-variant-numeric:normal;font-feature-settings:normal;text-align:start;writing-mode:lr-tb;text-anchor:start;fill:#000000;fill-opacity:1;stroke-width:0.26258856"
           id="path24" />
        <path
           d="m 46.311766,227.42602 h 0.472179 v 0.48483 h -0.472179 z m 0,0.86004 h 0.472179 v 2.09108 h -0.472179 z"
           style="font-style:normal;font-variant:normal;font-weight:600;font-stretch:normal;font-size:4.21588087px;font-family:Cabin;-inkscape-font-specification:'Cabin, Semi-Bold';font-variant-ligatures:normal;font-variant-caps:normal;font-variant-numeric:normal;font-feature-settings:normal;text-align:start;writing-mode:lr-tb;text-anchor:start;fill:#000000;fill-opacity:1;stroke-width:0.26258856"
           id="path26" />
        <path
           d="m 48.219321,230.4193 q -0.324623,0 -0.564928,-0.14334 -0.240305,-0.14756 -0.370998,-0.3963 -0.126476,-0.24873 -0.126476,-0.54806 0,-0.29933 0.126476,-0.54807 0.130693,-0.24873 0.370998,-0.39207 0.240305,-0.14756 0.564928,-0.14756 0.328839,0 0.569144,0.14756 0.240305,0.14334 0.366782,0.39207 0.126476,0.24874 0.126476,0.54807 0,0.29933 -0.126476,0.54806 -0.126477,0.24874 -0.366782,0.3963 -0.240305,0.14334 -0.569144,0.14334 z m 0,-0.3963 q 0.274032,0 0.425804,-0.1855 0.155988,-0.1855 0.155988,-0.5059 0,-0.31619 -0.155988,-0.50169 -0.151772,-0.18972 -0.425804,-0.18972 -0.274032,0 -0.425804,0.18972 -0.151772,0.1855 -0.151772,0.50169 0,0.3204 0.151772,0.5059 0.151772,0.1855 0.425804,0.1855 z"
           style="font-style:normal;font-variant:normal;font-weight:600;font-stretch:normal;font-size:4.21588087px;font-family:Cabin;-inkscape-font-specification:'Cabin, Semi-Bold';font-variant-ligatures:normal;font-variant-caps:normal;font-variant-numeric:normal;font-feature-settings:normal;text-align:start;writing-mode:lr-tb;text-anchor:start;fill:#000000;fill-opacity:1;stroke-width:0.26258856"
           id="path28" />
        <path
           d="m 50.700367,228.24812 q 0.408941,0 0.611303,0.25717 0.202362,0.25716 0.202362,0.70826 v 1.16359 h -0.467963 v -1.13408 q 0,-0.31197 -0.109613,-0.45531 -0.105397,-0.14334 -0.354134,-0.14334 -0.295111,0 -0.455315,0.20658 v 1.52615 h -0.472178 v -2.09108 h 0.417372 l 0.01686,0.17285 q 0.269817,-0.21079 0.611303,-0.21079 z"
           style="font-style:normal;font-variant:normal;font-weight:600;font-stretch:normal;font-size:4.21588087px;font-family:Cabin;-inkscape-font-specification:'Cabin, Semi-Bold';font-variant-ligatures:normal;font-variant-caps:normal;font-variant-numeric:normal;font-feature-settings:normal;text-align:start;writing-mode:lr-tb;text-anchor:start;fill:#000000;fill-opacity:1;stroke-width:0.26258856"
           id="path30" />
      </g>
    </g>
  </g>
</svg>
