<?xml version="1.0" encoding="UTF-8" standalone="no"?>
<!-- Created with Inkscape (http://www.inkscape.org/) -->

<svg
   xmlns:dc="http://purl.org/dc/elements/1.1/"
   xmlns:cc="http://creativecommons.org/ns#"
   xmlns:rdf="http://www.w3.org/1999/02/22-rdf-syntax-ns#"
   xmlns:svg="http://www.w3.org/2000/svg"
   xmlns="http://www.w3.org/2000/svg"
   xmlns:sodipodi="http://sodipodi.sourceforge.net/DTD/sodipodi-0.dtd"
   xmlns:inkscape="http://www.inkscape.org/namespaces/inkscape"
   width="100"
   height="40.000004"
   viewBox="0 0 26.458333 10.583335"
   version="1.1"
   id="svg919"
   inkscape:version="0.92.4 (5da689c313, 2019-01-14)"
   sodipodi:docname="Partie3.svg">
  <defs
     id="defs913" />
  <sodipodi:namedview
     id="base"
     pagecolor="#ffffff"
     bordercolor="#666666"
     borderopacity="1.0"
     inkscape:pageopacity="0.0"
     inkscape:pageshadow="2"
     inkscape:zoom="2.2394531"
     inkscape:cx="-13.610131"
     inkscape:cy="-64.904418"
     inkscape:document-units="px"
     inkscape:current-layer="layer1"
     showgrid="false"
     units="px"
     fit-margin-top="0"
     fit-margin-left="0"
     fit-margin-right="0"
     fit-margin-bottom="0"
     inkscape:window-width="1920"
     inkscape:window-height="1017"
     inkscape:window-x="-8"
     inkscape:window-y="-8"
     inkscape:window-maximized="1" />
  <metadata
     id="metadata916">
    <rdf:RDF>
      <cc:Work
         rdf:about="">
        <dc:format>image/svg+xml</dc:format>
        <dc:type
           rdf:resource="http://purl.org/dc/dcmitype/StillImage" />
        <dc:title />
      </cc:Work>
    </rdf:RDF>
  </metadata>
  <g
     inkscape:label="Calque 1"
     inkscape:groupmode="layer"
     id="layer1"
     transform="translate(-48.915841,-95.585303)">
    <g
       transform="translate(19.811674,-151.14386)"
       id="g1089">
      <path
         style="fill:#9fc5e8;fill-opacity:1;stroke:#073762;stroke-width:0.52915454;stroke-linecap:round;stroke-linejoin:round;stroke-miterlimit:4;stroke-dasharray:none;stroke-opacity:1"
         d="m 29.368744,246.99374 h 25.92918 v 10.05418 h -25.92918 z"
         id="rect10-1-7-9" />
      <g
         aria-label="Partie III"
         transform="scale(0.98040042,1.0199914)"
         style="font-style:normal;font-variant:normal;font-weight:600;font-stretch:normal;font-size:4.38418484px;line-height:1.25;font-family:Cabin;-inkscape-font-specification:'Cabin, Semi-Bold';font-variant-ligatures:normal;font-variant-caps:normal;font-variant-numeric:normal;font-feature-settings:normal;text-align:start;letter-spacing:0px;word-spacing:0px;writing-mode:lr-tb;text-anchor:start;fill:#000000;fill-opacity:1;stroke:none;stroke-width:0.2730715"
         id="text819-2-5-1">
        <path
           d="m 35.758138,245.52493 h 1.065357 q 1.069741,0 1.069741,0.99082 0,0.50857 -0.276203,0.75847 -0.276204,0.2499 -0.789153,0.2499 h -0.552408 v 1.06974 h -0.517334 z m 1.008363,1.56515 q 0.306893,0 0.455955,-0.13591 0.153447,-0.14029 0.153447,-0.42965 0,-0.29374 -0.153447,-0.42965 -0.149062,-0.13591 -0.464723,-0.13591 h -0.482261 v 1.13112 z"
           style="font-style:normal;font-variant:normal;font-weight:600;font-stretch:normal;font-size:4.38418484px;font-family:Cabin;-inkscape-font-specification:'Cabin, Semi-Bold';font-variant-ligatures:normal;font-variant-caps:normal;font-variant-numeric:normal;font-feature-settings:normal;text-align:start;writing-mode:lr-tb;text-anchor:start;fill:#000000;fill-opacity:1;stroke-width:0.2730715"
           id="path12" />
        <path
           d="m 38.67458,248.6377 q -0.280587,0 -0.464723,-0.17537 -0.179752,-0.17975 -0.179752,-0.46911 0,-0.28497 0.201673,-0.45595 0.201672,-0.17098 0.48226,-0.24113 0.284972,-0.0745 0.56556,-0.0833 -0.0044,-0.22798 -0.100836,-0.31566 -0.09645,-0.0921 -0.320046,-0.0921 -0.140294,0 -0.280588,0.0438 -0.135909,0.0395 -0.306893,0.13153 l -0.05261,-0.39896 q 0.368272,-0.20168 0.776001,-0.20168 0.394576,0 0.587481,0.21921 0.192904,0.21483 0.192904,0.71462 v 0.53926 q 0,0.17098 0.01315,0.2499 0.01754,0.0745 0.057,0.10522 0.04384,0.0307 0.140294,0.0307 h 0.06138 l -0.05699,0.39896 h -0.13591 q -0.210441,0 -0.328814,-0.0701 -0.113989,-0.0702 -0.184136,-0.20605 -0.113988,0.12714 -0.289356,0.20167 -0.175367,0.0745 -0.37704,0.0745 z m 0.175368,-0.38143 q 0.109604,0 0.227977,-0.0526 0.122758,-0.057 0.206057,-0.15344 v -0.50418 q -0.337582,0.0131 -0.543639,0.11837 -0.201672,0.10522 -0.201672,0.30689 0,0.28497 0.311277,0.28497 z"
           style="font-style:normal;font-variant:normal;font-weight:600;font-stretch:normal;font-size:4.38418484px;font-family:Cabin;-inkscape-font-specification:'Cabin, Semi-Bold';font-variant-ligatures:normal;font-variant-caps:normal;font-variant-numeric:normal;font-feature-settings:normal;text-align:start;writing-mode:lr-tb;text-anchor:start;fill:#000000;fill-opacity:1;stroke-width:0.2730715"
           id="path14" />
        <path
           d="m 40.341598,246.4193 h 0.442803 l 0.02631,0.2762 q 0.118373,-0.14467 0.27182,-0.23236 0.153446,-0.0877 0.320045,-0.0877 0.04384,0 0.09645,0.009 l -0.03946,0.49979 q -0.07015,-0.0219 -0.166599,-0.0219 -0.144679,0 -0.27182,0.0702 -0.127141,0.0658 -0.179752,0.15783 v 1.50378 h -0.499797 z"
           style="font-style:normal;font-variant:normal;font-weight:600;font-stretch:normal;font-size:4.38418484px;font-family:Cabin;-inkscape-font-specification:'Cabin, Semi-Bold';font-variant-ligatures:normal;font-variant-caps:normal;font-variant-numeric:normal;font-feature-settings:normal;text-align:start;writing-mode:lr-tb;text-anchor:start;fill:#000000;fill-opacity:1;stroke-width:0.2730715"
           id="path16" />
        <path
           d="m 42.486423,248.6377 q -0.284972,0 -0.434034,-0.16222 -0.144678,-0.16221 -0.144678,-0.39019 v -1.27141 h -0.328814 l 0.04384,-0.39458 h 0.284972 v -0.4998 l 0.491029,-0.0526 v 0.55241 h 0.512949 v 0.39458 H 42.39874 v 1.04343 q 0,0.19291 0.02192,0.26744 0.02192,0.0701 0.09207,0.0921 0.07453,0.0219 0.263052,0.0219 h 0.131525 l -0.04384,0.39896 z"
           style="font-style:normal;font-variant:normal;font-weight:600;font-stretch:normal;font-size:4.38418484px;font-family:Cabin;-inkscape-font-specification:'Cabin, Semi-Bold';font-variant-ligatures:normal;font-variant-caps:normal;font-variant-numeric:normal;font-feature-settings:normal;text-align:start;writing-mode:lr-tb;text-anchor:start;fill:#000000;fill-opacity:1;stroke-width:0.2730715"
           id="path18" />
        <path
           d="m 43.261534,245.52493 h 0.491028 v 0.50418 h -0.491028 z m 0,0.89437 h 0.491028 v 2.17456 h -0.491028 z"
           style="font-style:normal;font-variant:normal;font-weight:600;font-stretch:normal;font-size:4.38418484px;font-family:Cabin;-inkscape-font-specification:'Cabin, Semi-Bold';font-variant-ligatures:normal;font-variant-caps:normal;font-variant-numeric:normal;font-feature-settings:normal;text-align:start;writing-mode:lr-tb;text-anchor:start;fill:#000000;fill-opacity:1;stroke-width:0.2730715"
           id="path20" />
        <path
           d="m 45.319772,248.6377 q -0.37704,0 -0.644475,-0.15345 -0.263051,-0.15344 -0.398961,-0.41211 -0.13591,-0.26305 -0.13591,-0.5831 0,-0.30689 0.122757,-0.55679 0.127142,-0.25428 0.368272,-0.40334 0.245514,-0.14907 0.574328,-0.14907 0.289356,0 0.499797,0.12276 0.214825,0.11837 0.32443,0.32881 0.113989,0.21045 0.113989,0.48226 0,0.1403 -0.03069,0.26744 h -1.464318 q 0.03946,0.33758 0.232362,0.49103 0.197289,0.15345 0.486645,0.15345 0.355119,0 0.644475,-0.16222 l 0.03507,0.40773 q -0.333198,0.1666 -0.727774,0.1666 z m 0.324429,-1.38979 q 0,-0.1929 -0.109604,-0.32443 -0.109605,-0.13152 -0.333198,-0.13152 -0.425266,0 -0.534871,0.45595 z"
           style="font-style:normal;font-variant:normal;font-weight:600;font-stretch:normal;font-size:4.38418484px;font-family:Cabin;-inkscape-font-specification:'Cabin, Semi-Bold';font-variant-ligatures:normal;font-variant-caps:normal;font-variant-numeric:normal;font-feature-settings:normal;text-align:start;writing-mode:lr-tb;text-anchor:start;fill:#000000;fill-opacity:1;stroke-width:0.2730715"
           id="path22" />
        <path
           d="m 47.592012,245.52493 h 0.508566 v 3.06893 h -0.508566 z"
           style="font-style:normal;font-variant:normal;font-weight:600;font-stretch:normal;font-size:4.38418484px;font-family:Cabin;-inkscape-font-specification:'Cabin, Semi-Bold';font-variant-ligatures:normal;font-variant-caps:normal;font-variant-numeric:normal;font-feature-settings:normal;text-align:start;writing-mode:lr-tb;text-anchor:start;fill:#000000;fill-opacity:1;stroke-width:0.2730715"
           id="path24" />
        <path
           d="m 48.78225,245.52493 h 0.508566 v 3.06893 H 48.78225 Z"
           style="font-style:normal;font-variant:normal;font-weight:600;font-stretch:normal;font-size:4.38418484px;font-family:Cabin;-inkscape-font-specification:'Cabin, Semi-Bold';font-variant-ligatures:normal;font-variant-caps:normal;font-variant-numeric:normal;font-feature-settings:normal;text-align:start;writing-mode:lr-tb;text-anchor:start;fill:#000000;fill-opacity:1;stroke-width:0.2730715"
           id="path26" />
        <path
           d="m 49.972487,245.52493 h 0.508566 v 3.06893 h -0.508566 z"
           style="font-style:normal;font-variant:normal;font-weight:600;font-stretch:normal;font-size:4.38418484px;font-family:Cabin;-inkscape-font-specification:'Cabin, Semi-Bold';font-variant-ligatures:normal;font-variant-caps:normal;font-variant-numeric:normal;font-feature-settings:normal;text-align:start;writing-mode:lr-tb;text-anchor:start;fill:#000000;fill-opacity:1;stroke-width:0.2730715"
           id="path28" />
      </g>
    </g>
  </g>
</svg>
