<?xml version="1.0" encoding="UTF-8" standalone="no"?>
<!-- Generator: Adobe Illustrator 19.0.0, SVG Export Plug-In . SVG Version: 6.00 Build 0)  -->

<svg
   xmlns:dc="http://purl.org/dc/elements/1.1/"
   xmlns:cc="http://creativecommons.org/ns#"
   xmlns:rdf="http://www.w3.org/1999/02/22-rdf-syntax-ns#"
   xmlns:svg="http://www.w3.org/2000/svg"
   xmlns="http://www.w3.org/2000/svg"
   xmlns:sodipodi="http://sodipodi.sourceforge.net/DTD/sodipodi-0.dtd"
   xmlns:inkscape="http://www.inkscape.org/namespaces/inkscape"
   version="1.1"
   id="Capa_1"
   x="0px"
   y="0px"
   viewBox="0 0 512 512"
   style="enable-background:new 0 0 512 512;"
   xml:space="preserve"
   sodipodi:docname="QuitIcon.svg"
   inkscape:version="0.92.3 (2405546, 2018-03-11)"><metadata
   id="metadata47"><rdf:RDF><cc:Work
       rdf:about=""><dc:format>image/svg+xml</dc:format><dc:type
         rdf:resource="http://purl.org/dc/dcmitype/StillImage" /><dc:title></dc:title></cc:Work></rdf:RDF></metadata><defs
   id="defs45" /><sodipodi:namedview
   pagecolor="#ffffff"
   bordercolor="#666666"
   borderopacity="1"
   objecttolerance="10"
   gridtolerance="10"
   guidetolerance="10"
   inkscape:pageopacity="0"
   inkscape:pageshadow="2"
   inkscape:window-width="1920"
   inkscape:window-height="1009"
   id="namedview43"
   showgrid="false"
   inkscape:zoom="1.1922659"
   inkscape:cx="50.663321"
   inkscape:cy="304.9413"
   inkscape:window-x="0"
   inkscape:window-y="42"
   inkscape:window-maximized="1"
   inkscape:current-layer="Capa_1" />
<g
   id="g10"
   style="fill:#000000;fill-opacity:1">
	<g
   id="g8"
   style="fill:#000000;fill-opacity:1">
		<g
   id="g6"
   style="fill:#000000;fill-opacity:1">
			<path
   d="m 330.667,384 h -21.333 c -5.891,0 -10.667,4.776 -10.667,10.667 v 74.667 h -256 V 42.667 h 256 v 74.667 c 0,5.891 4.776,10.667 10.667,10.667 h 21.333 c 5.891,0 10.667,-4.776 10.667,-10.667 V 42.667 C 341.333,19.103 322.231,0 298.667,0 h -256 C 19.103,0 0,19.103 0,42.667 V 469.334 C 0,492.898 19.103,512 42.667,512 h 256 c 23.564,0 42.667,-19.102 42.667,-42.667 V 394.666 C 341.333,388.776 336.558,384 330.667,384 Z"
   id="path2"
   inkscape:connector-curvature="0"
   style="fill:#000000;fill-opacity:1" />
			<path
   d="m 508.542,248.135 -128,-117.333 c -3.125,-2.844 -7.656,-3.625 -11.5,-1.896 -3.875,1.698 -6.375,5.531 -6.375,9.76 V 160 c 0,3.021 1.281,5.906 3.531,7.927 l 74.151,66.74 H 138.667 c -5.896,0 -10.667,4.771 -10.667,10.667 v 21.333 c 0,5.896 4.771,10.667 10.667,10.667 h 301.682 l -74.151,66.74 c -2.25,2.021 -3.531,4.906 -3.531,7.927 v 21.333 c 0,4.229 2.5,8.063 6.375,9.76 1.375,0.615 2.844,0.906 4.292,0.906 2.615,0 5.198,-0.969 7.208,-2.802 l 128,-117.333 C 510.75,261.844 512,258.99 512,256 c 0,-2.99 -1.25,-5.844 -3.458,-7.865 z"
   id="path4"
   inkscape:connector-curvature="0"
   style="fill:#000000;fill-opacity:1" />
		</g>
	</g>
</g>
<g
   id="g12">
</g>
<g
   id="g14">
</g>
<g
   id="g16">
</g>
<g
   id="g18">
</g>
<g
   id="g20">
</g>
<g
   id="g22">
</g>
<g
   id="g24">
</g>
<g
   id="g26">
</g>
<g
   id="g28">
</g>
<g
   id="g30">
</g>
<g
   id="g32">
</g>
<g
   id="g34">
</g>
<g
   id="g36">
</g>
<g
   id="g38">
</g>
<g
   id="g40">
</g>
</svg>