<?xml version="1.0" encoding="UTF-8" standalone="no"?>
<svg
   xmlns:dc="http://purl.org/dc/elements/1.1/"
   xmlns:cc="http://creativecommons.org/ns#"
   xmlns:rdf="http://www.w3.org/1999/02/22-rdf-syntax-ns#"
   xmlns:svg="http://www.w3.org/2000/svg"
   xmlns="http://www.w3.org/2000/svg"
   xmlns:sodipodi="http://sodipodi.sourceforge.net/DTD/sodipodi-0.dtd"
   xmlns:inkscape="http://www.inkscape.org/namespaces/inkscape"
   version="1.1"
   viewBox="0.0 0.0 850.0 380.0"
   fill="none"
   stroke="none"
   stroke-linecap="square"
   stroke-miterlimit="10"
   id="svg19"
   sodipodi:docname="Partie I.svg"
   inkscape:version="0.92.3 (2405546, 2018-03-11)"
   inkscape:export-filename="/home/gabriel/Bureau/TPE-Cancer/SVG/Presentations/Partie I.png"
   inkscape:export-xdpi="96"
   inkscape:export-ydpi="96">
  <metadata
     id="metadata25">
    <rdf:RDF>
      <cc:Work
         rdf:about="">
        <dc:format>image/svg+xml</dc:format>
        <dc:type
           rdf:resource="http://purl.org/dc/dcmitype/StillImage" />
        <dc:title></dc:title>
      </cc:Work>
    </rdf:RDF>
  </metadata>
  <defs
     id="defs23" />
  <sodipodi:namedview
     pagecolor="#1c4587"
     bordercolor="#666666"
     borderopacity="1"
     objecttolerance="10"
     gridtolerance="10"
     guidetolerance="10"
     inkscape:pageopacity="1"
     inkscape:pageshadow="2"
     inkscape:window-width="1920"
     inkscape:window-height="1009"
     id="namedview21"
     showgrid="false"
     inkscape:zoom="1"
     inkscape:cx="340.33111"
     inkscape:cy="293.53767"
     inkscape:window-x="0"
     inkscape:window-y="42"
     inkscape:window-maximized="1"
     inkscape:current-layer="svg19" />
  <clipPath
     id="p.0">
    <path
       d="m0 0l850.0 0l0 380.0l-850.0 0l0 -380.0z"
       clip-rule="nonzero"
       id="path2" />
  </clipPath>
  <path
     style="fill:#ffffff;fill-rule:nonzero;stroke-width:1.14545584"
     inkscape:connector-curvature="0"
     id="path9"
     d="m 275.52748,161.73394 4.6451,2.67622 q -1.56597,6.15351 -6.33423,9.53973 -4.75068,3.38626 -10.92655,3.38626 -8.11133,0 -13.02036,-5.44348 Q 245,166.4492 245,158.43872 q 0,-8.79332 4.92662,-13.98191 4.92662,-5.20681 12.84442,-5.20681 7.00285,0 11.77112,3.95063 v -3.36804 h 4.62749 v 11.87004 h -4.62749 q -1.53078,-3.6229 -4.75069,-5.5891 -3.20229,-1.98442 -6.73891,-1.98442 -5.3313,0 -8.76236,3.98702 -3.41343,3.98702 -3.41343,10.04951 0,6.24452 3.65977,10.21334 3.67738,3.95063 8.69196,3.95063 4.13486,0 7.51312,-2.74906 3.39585,-2.74903 4.78586,-7.84661 z m 34.37482,10.54104 v 4.47858 h -8.51602 v -3.13135 q -3.53662,3.55007 -7.9002,3.55007 -3.39585,0 -5.89434,-2.27569 -2.49851,-2.2757 -2.49851,-5.84399 0,-3.58651 2.65684,-5.93502 2.65688,-2.36674 6.40463,-2.36674 3.48382,0 6.73892,2.16646 v -2.54879 q 0,-1.94799 -0.36951,-3.00391 -0.3519,-1.07415 -1.67152,-1.91159 -1.31963,-0.85567 -3.44864,-0.85567 -3.65977,0 -5.31372,3.02214 l -4.66271,-1.2744 q 3.09676,-6.00785 10.71544,-6.00785 2.7976,0 4.83863,0.78284 2.04103,0.78284 3.04396,2.02083 1.0029,1.23796 1.33723,2.67619 0.3519,1.42006 0.3519,4.55142 v 11.90647 z m -9.00868,-5.07937 q -3.14952,-2.54876 -6.38702,-2.54876 -2.02344,0 -3.39585,1.21976 -1.35483,1.21979 -1.35483,3.16777 0,1.80236 1.19647,3.02212 1.19646,1.2198 3.2551,1.2198 3.53661,0 6.68613,-3.07675 z m 20.31976,-16.13017 v 3.09497 q 4.69788,-3.49549 8.56879,-3.49549 2.41054,0 3.9765,1.18335 1.58355,1.18339 2.07621,2.89471 0.49266,1.71132 0.49266,4.98834 v 12.54366 h 4.17005 v 4.47858 h -9.04388 v -16.80377 q 0,-2.9129 -0.84457,-3.80498 -0.84456,-0.89208 -2.07621,-0.89208 -3.23749,0 -7.31955,3.25882 v 13.76343 h 4.2932 v 4.47858 h -13.53063 v -4.47858 h 4.36358 v -16.73095 h -4.36358 v -4.47859 z m 44.86221,0 v 9.70359 h -4.34599 q -0.33432,-2.78546 -2.19938,-4.2601 -1.86509,-1.49287 -4.3284,-1.49287 -3.27268,0 -5.33131,2.40314 -2.05863,2.40315 -2.05863,6.29914 0,3.64114 1.95305,6.4266 1.95307,2.76724 5.64803,2.76724 5.12018,0 7.44273,-5.04295 l 4.02928,1.94801 Q 363.54189,177.5 355.20182,177.5 q -5.89435,0 -9.2902,-4.1691 -3.37826,-4.16906 -3.37826,-9.61256 0,-5.80757 3.69498,-9.59435 3.69495,-3.78676 8.51601,-3.78676 4.13484,0 6.98525,2.53056 v -1.80235 z m 30.15262,14.10936 h -20.88537 q 0.45746,3.56828 2.70963,5.77119 2.26977,2.20286 5.78879,2.20286 5.10258,0 8.07615,-4.2601 l 4.3108,1.9662 q -2.11141,3.36803 -5.47209,5.00654 -3.36064,1.63851 -7.02042,1.63851 -5.70081,0 -9.74768,-3.67754 -4.02929,-3.67754 -4.02929,-9.92205 0,-5.91684 3.9413,-9.74 3.9413,-3.82318 9.04388,-3.82318 4.997,0 9.06149,3.73214 4.06445,3.73215 4.22281,11.10543 z m -5.0322,-3.65933 q -0.51027,-2.71264 -2.72724,-4.89731 -2.19938,-2.18467 -5.40169,-2.18467 -2.92078,0 -4.99701,1.98441 -2.07621,1.96622 -2.55129,5.09757 z m 13.13826,10.75951 v -16.73095 h -4.997 v -4.47859 h 8.90312 v 5.77117 q 0.80938,-2.23927 2.26977,-3.73214 1.46038,-1.49284 3.09674,-1.9662 1.63634,-0.47335 4.45155,-0.47335 h 1.28445 v 5.09758 h -0.98532 q -3.71258,0 -5.54247,0.76463 -1.82989,0.76464 -2.72723,2.80367 -0.87976,2.02082 -0.87976,7.28225 v 5.66193 h 5.41928 v 4.47858 h -15.29013 v -4.47858 z m 57.05452,-7.10018 h -20.88536 q 0.45748,3.56828 2.70965,5.77119 2.26976,2.20286 5.78878,2.20286 5.10256,0 8.07614,-4.2601 l 4.31079,1.9662 q -2.11141,3.36803 -5.47206,5.00654 -3.36068,1.63851 -7.02045,1.63851 -5.70081,0 -9.74769,-3.67754 -4.02925,-3.67754 -4.02925,-9.92205 0,-5.91684 3.9413,-9.74 3.9413,-3.82318 9.04386,-3.82318 4.99702,0 9.06147,3.73214 4.06447,3.73215 4.22282,11.10543 z m -5.0322,-3.65933 q -0.51024,-2.71264 -2.72723,-4.89731 -2.19939,-2.18467 -5.40169,-2.18467 -2.92079,0 -4.99702,1.98441 -2.07621,1.96622 -2.55126,5.09757 z m 8.56357,-5.97144 v -4.47859 h 3.23749 v -3.96882 l 4.87384,-4.60603 v 8.57485 h 4.59231 v 4.47859 h -4.59231 v 12.47085 q 0,3.00391 0.3167,3.71394 0.33431,0.6918 1.60115,0.6918 1.37243,0 2.67446,-0.52795 v 4.58781 q -1.86507,0.6918 -3.74775,0.6918 -2.23458,0 -3.62459,-1.0195 -1.37243,-1.01952 -1.7419,-2.54877 -0.35191,-1.54751 -0.35191,-5.31606 v -12.74392 z m 52.28465,8.22895 h -12.82682 l -2.74483,8.35636 h 4.34598 v 4.62422 h -14.05846 v -4.62422 h 4.31078 l 9.74768,-28.12768 h -4.34598 v -4.16907 h 18.24611 v 4.16907 h -4.43396 l 9.97637,28.12768 h 3.9941 v 4.62422 h -13.97047 v -4.62422 h 4.43396 z m -1.33722,-4.33294 -4.73309,-15.43838 h -0.49266 l -4.92662,15.43838 z m 18.64994,12.6893 v -27.67253 h -4.83867 v -4.62422 h 13.79457 q 5.71841,0 8.81514,0.61898 3.09673,0.60079 5.98233,2.74906 2.90318,2.14827 4.62749,5.91681 1.74193,3.75035 1.74193,8.55664 0,5.46169 -1.67155,9.50333 -1.65393,4.02345 -4.36358,6.02605 -2.70963,1.98442 -6.43981,2.76727 -3.73015,0.78283 -9.50134,0.78283 h -12.98518 v -4.62422 z m 5.40168,0 h 2.81521 q 4.71548,0 7.47792,-0.60079 2.76243,-0.61899 4.6627,-2.09364 1.90026,-1.47466 3.07913,-4.44217 1.17888,-2.96751 1.17888,-7.00917 0,-4.80626 -1.93546,-8.1379 -1.93545,-3.34983 -4.96183,-4.36934 -3.00874,-1.01952 -9.27259,-1.01952 h -3.04396 z m 32.75861,0 v -27.67253 h -5.10256 v -4.62422 h 12.17579 l 15.65963,28.69204 v -24.06782 h -5.06738 v -4.62422 H 605 v 4.62422 h -5.26092 v 32.66087 h -5.54247 L 577.0942,145.62196 v 26.50738 h 5.10256 v 4.62422 h -14.6215 v -4.62422 z" />
  <path
     style="fill:#8bc34a;fill-rule:nonzero;stroke-width:0.98735654"
     inkscape:connector-curvature="0"
     id="path15"
     d="M 376.72435,251.41174 V 235.46595 H 374 v -2.66018 h 7.73717 q 3.40935,0 5.10623,0.47394 1.69689,0.47394 2.83333,2.15566 1.15202,1.66644 1.15202,3.94441 0,1.81932 -0.76282,3.27171 -0.74725,1.43711 -1.86813,2.12509 -1.10531,0.68798 -2.50641,0.93259 -1.38553,0.22933 -4.2033,0.22933 h -1.49451 v 5.47324 h 2.8022 v 2.66019 H 374 v -2.66019 z m 3.26923,-8.04169 h 1.86814 q 3.19139,0 4.42124,-0.88673 1.22986,-0.90202 1.22986,-3.1647 0,-1.43711 -0.65385,-2.38499 -0.65384,-0.94788 -1.61904,-1.20777 -0.9652,-0.25991 -3.22254,-0.25991 h -2.02381 z m 28.1621,8.11813 v 2.58375 h -5.1685 v -1.80404 q -2.14835,2.04865 -4.79487,2.04865 -2.05495,0 -3.58059,-1.3148 -1.51008,-1.3148 -1.51008,-3.36345 0,-2.06394 1.60349,-3.4246 1.61905,-1.36067 3.89194,-1.36067 2.11722,0 4.09432,1.25365 v -1.46769 q 0,-1.13134 -0.21795,-1.74287 -0.21795,-0.61154 -1.02747,-1.10077 -0.79396,-0.48923 -2.08608,-0.48923 -2.22619,0 -3.22253,1.74288 l -2.83333,-0.73384 q 1.88369,-3.45518 6.50733,-3.45518 1.69688,0 2.92674,0.45865 1.24542,0.44337 1.85255,1.16192 0.60715,0.70327 0.80953,1.52884 0.21795,0.82557 0.21795,2.6296 v 6.8492 z m -5.46429,-2.92008 q -1.91483,-1.46768 -3.87637,-1.46768 -1.22986,0 -2.05495,0.70326 -0.82509,0.70327 -0.82509,1.81932 0,1.03961 0.71611,1.74287 0.73169,0.70327 1.97712,0.70327 2.14835,0 4.06318,-1.77345 z m 9.60531,2.92008 v -9.63168 h -3.03572 v -2.58374 h 5.40202 v 3.33287 q 0.49817,-1.29952 1.38553,-2.15567 0.88737,-0.85615 1.86813,-1.13134 0.99634,-0.27519 2.70879,-0.27519 h 0.77839 v 2.93537 h -0.59157 q -2.25732,0 -3.3782,0.44337 -1.10532,0.44336 -1.65019,1.62057 -0.5293,1.16192 -0.5293,4.18902 v 3.25642 h 3.28479 v 2.58375 h -9.27839 v -2.58375 z m 10.52381,-9.63168 v -2.58374 h 1.96154 v -2.27797 l 2.95788,-2.66018 v 4.93815 h 2.78662 v 2.58374 h -2.78662 v 7.18554 q 0,1.72759 0.18681,2.14037 0.20238,0.3975 0.98076,0.3975 0.8251,0 1.61905,-0.30577 v 2.6449 q -1.13644,0.3975 -2.27289,0.3975 -1.35439,0 -2.19505,-0.58096 -0.84066,-0.59625 -1.05861,-1.48298 -0.21795,-0.88673 -0.21795,-3.05768 v -7.33842 z m 11.61356,-7.61362 q 0,-0.70327 0.49816,-1.22307 0.51374,-0.51981 1.29212,-0.51981 0.73169,0 1.261,0.50452 0.5293,0.50451 0.5293,1.23836 0,0.73384 -0.5293,1.25364 -0.52931,0.50453 -1.261,0.50453 -0.74725,0 -1.27655,-0.51981 -0.51373,-0.5198 -0.51373,-1.23836 z m 0.42032,17.2453 v -9.63168 h -2.35073 v -2.58374 h 5.30861 v 12.21542 h 2.3196 v 2.58375 h -7.62821 v -2.58375 z m 23.02473,-4.08199 h -12.67216 q 0.28022,2.04864 1.65018,3.31757 1.36997,1.26894 3.50275,1.26894 3.09799,0 4.90385,-2.44614 l 2.61538,1.13134 q -1.27656,1.94162 -3.31594,2.8895 -2.03937,0.9326 -4.26557,0.9326 -3.45604,0 -5.91575,-2.1098 -2.44413,-2.12509 -2.44413,-5.71786 0,-3.40931 2.38186,-5.61084 2.39744,-2.20153 5.49543,-2.20153 3.03571,0 5.49541,2.15567 2.47528,2.14037 2.56869,6.39055 z m -3.05128,-2.1098 q -0.31136,-1.55942 -1.65018,-2.81307 -1.33883,-1.26894 -3.28481,-1.26894 -1.77472,0 -3.03571,1.14664 -1.26099,1.13134 -1.54121,2.93537 z m 15.55219,6.11535 v -15.94579 h -2.35073 v -2.66018 H 476 v 2.66018 h -2.35074 v 15.94579 H 476 v 2.66019 h -7.9707 v -2.66019 z" />
  <rect
     style="fill:#039be5;fill-opacity:1;stroke:none;stroke-width:1.38144743;stroke-linecap:round;stroke-linejoin:round;stroke-miterlimit:4;stroke-dasharray:none;stroke-opacity:1"
     id="rect936"
     width="75"
     height="5"
     x="387.5"
     y="202.5"
     ry="0.95052087" />
</svg>
