<?xml version="1.0" encoding="UTF-8" standalone="no"?>
<!-- Created with Inkscape (http://www.inkscape.org/) -->

<svg
   xmlns:dc="http://purl.org/dc/elements/1.1/"
   xmlns:cc="http://creativecommons.org/ns#"
   xmlns:rdf="http://www.w3.org/1999/02/22-rdf-syntax-ns#"
   xmlns:svg="http://www.w3.org/2000/svg"
   xmlns="http://www.w3.org/2000/svg"
   xmlns:sodipodi="http://sodipodi.sourceforge.net/DTD/sodipodi-0.dtd"
   xmlns:inkscape="http://www.inkscape.org/namespaces/inkscape"
   width="100"
   height="40.000004"
   viewBox="0 0 26.458333 10.583335"
   version="1.1"
   id="svg947"
   inkscape:version="0.92.4 (5da689c313, 2019-01-14)"
   sodipodi:docname="Conclusion.svg">
  <defs
     id="defs941" />
  <sodipodi:namedview
     id="base"
     pagecolor="#ffffff"
     bordercolor="#666666"
     borderopacity="1.0"
     inkscape:pageopacity="0.0"
     inkscape:pageshadow="2"
     inkscape:zoom="1.1197266"
     inkscape:cx="-74.247329"
     inkscape:cy="-111.78087"
     inkscape:document-units="px"
     inkscape:current-layer="layer1"
     showgrid="false"
     units="px"
     fit-margin-top="0"
     fit-margin-left="0"
     fit-margin-right="0"
     fit-margin-bottom="0"
     inkscape:window-width="1920"
     inkscape:window-height="1017"
     inkscape:window-x="-8"
     inkscape:window-y="-8"
     inkscape:window-maximized="1" />
  <metadata
     id="metadata944">
    <rdf:RDF>
      <cc:Work
         rdf:about="">
        <dc:format>image/svg+xml</dc:format>
        <dc:type
           rdf:resource="http://purl.org/dc/dcmitype/StillImage" />
        <dc:title />
      </cc:Work>
    </rdf:RDF>
  </metadata>
  <g
     inkscape:label="Calque 1"
     inkscape:groupmode="layer"
     id="layer1"
     transform="translate(-23.872033,-108.67464)">
    <g
       transform="translate(23.872033,-111.5962)"
       id="g1124">
      <path
         style="fill:#cfd8dc;fill-opacity:1;stroke:#073762;stroke-width:0.52915454;stroke-linecap:round;stroke-linejoin:round;stroke-miterlimit:4;stroke-dasharray:none;stroke-opacity:1"
         d="M 0.26457727,220.53542 H 26.193757 V 230.5896 H 0.26457727 Z"
         id="rect10-1-7-1-6" />
      <g
         aria-label="Conclusion"
         transform="scale(1.014467,0.9857393)"
         style="font-style:normal;font-variant:normal;font-weight:600;font-stretch:normal;font-size:4.21588087px;line-height:1.25;font-family:Cabin;-inkscape-font-specification:'Cabin, Semi-Bold';font-variant-ligatures:normal;font-variant-caps:normal;font-variant-numeric:normal;font-feature-settings:normal;text-align:start;letter-spacing:0px;word-spacing:0px;writing-mode:lr-tb;text-anchor:start;fill:#000000;fill-opacity:1;stroke:none;stroke-width:0.26258856"
         id="text819-2-5-7-3">
        <path
           d="m 4.760981,230.43617 q -0.4384516,0 -0.779938,-0.18971 -0.3414863,-0.18972 -0.5354168,-0.53542 -0.1897147,-0.34992 -0.1897147,-0.80945 0,-0.45953 0.1939305,-0.80523 0.1981464,-0.34992 0.5438487,-0.53963 0.3457022,-0.18972 0.7841538,-0.18972 0.2192258,0 0.4173722,0.0464 0.1981464,0.0464 0.354134,0.12647 l -0.050591,0.46375 q -0.3667816,-0.17285 -0.7251315,-0.17285 -0.3119752,0 -0.5354168,0.13912 -0.2192258,0.13491 -0.3330546,0.37943 -0.1138288,0.24031 -0.1138288,0.55228 0,0.31198 0.1096129,0.5565 0.1138288,0.2403 0.3330546,0.37943 0.2192258,0.13491 0.531201,0.13491 0.1981464,0 0.3709975,-0.0422 0.177067,-0.0422 0.3625657,-0.12648 l 0.050591,0.45953 q -0.354134,0.17285 -0.7883697,0.17285 z"
           style="font-style:normal;font-variant:normal;font-weight:600;font-stretch:normal;font-size:4.21588087px;font-family:Cabin;-inkscape-font-specification:'Cabin, Semi-Bold';font-variant-ligatures:normal;font-variant-caps:normal;font-variant-numeric:normal;font-feature-settings:normal;text-align:start;writing-mode:lr-tb;text-anchor:start;stroke-width:0.26258856"
           id="path12" />
        <path
           d="m 6.816684,230.41931 q -0.3246229,0 -0.5649281,-0.14334 -0.2403052,-0.14756 -0.3709975,-0.39629 -0.1264764,-0.24874 -0.1264764,-0.54807 0,-0.29932 0.1264764,-0.54806 0.1306923,-0.24874 0.3709975,-0.39208 0.2403052,-0.14755 0.5649281,-0.14755 0.3288387,0 0.5691439,0.14755 0.2403052,0.14334 0.3667816,0.39208 0.1264764,0.24874 0.1264764,0.54806 0,0.29933 -0.1264764,0.54807 -0.1264764,0.24873 -0.3667816,0.39629 -0.2403052,0.14334 -0.5691439,0.14334 z m 0,-0.39629 q 0.2740322,0 0.4258039,-0.1855 0.1559876,-0.1855 0.1559876,-0.50591 0,-0.31619 -0.1559876,-0.50169 -0.1517717,-0.18971 -0.4258039,-0.18971 -0.2740323,0 -0.425804,0.18971 -0.1517717,0.1855 -0.1517717,0.50169 0,0.32041 0.1517717,0.50591 0.1517717,0.1855 0.425804,0.1855 z"
           style="font-style:normal;font-variant:normal;font-weight:600;font-stretch:normal;font-size:4.21588087px;font-family:Cabin;-inkscape-font-specification:'Cabin, Semi-Bold';font-variant-ligatures:normal;font-variant-caps:normal;font-variant-numeric:normal;font-feature-settings:normal;text-align:start;writing-mode:lr-tb;text-anchor:start;stroke-width:0.26258856"
           id="path14" />
        <path
           d="m 9.2977301,228.24813 q 0.4089405,0 0.6113027,0.25717 0.2023622,0.25717 0.2023622,0.70827 v 1.16358 H 9.6434323 v -1.13407 q 0,-0.31198 -0.1096129,-0.45532 -0.105397,-0.14334 -0.354134,-0.14334 -0.2951116,0 -0.4553151,0.20658 v 1.52615 H 8.2521917 v -2.09108 h 0.4173722 l 0.016863,0.17286 q 0.2698164,-0.2108 0.6113027,-0.2108 z"
           style="font-style:normal;font-variant:normal;font-weight:600;font-stretch:normal;font-size:4.21588087px;font-family:Cabin;-inkscape-font-specification:'Cabin, Semi-Bold';font-variant-ligatures:normal;font-variant-caps:normal;font-variant-numeric:normal;font-feature-settings:normal;text-align:start;writing-mode:lr-tb;text-anchor:start;stroke-width:0.26258856"
           id="path16" />
        <path
           d="m 11.56034,230.41931 q -0.345702,0 -0.594439,-0.14334 -0.244521,-0.14334 -0.370997,-0.38786 -0.126477,-0.24452 -0.126477,-0.54807 0,-0.31197 0.122261,-0.56071 0.126476,-0.24873 0.375213,-0.39207 0.248737,-0.14334 0.615519,-0.14334 0.316191,0 0.564928,0.13069 l -0.05059,0.38786 q -0.244521,-0.11805 -0.484826,-0.11805 -0.316191,0 -0.489042,0.1855 -0.172851,0.1855 -0.172851,0.50169 0,0.31198 0.172851,0.50169 0.172851,0.18972 0.48061,0.18972 0.261385,0 0.497474,-0.13491 l 0.05059,0.39208 q -0.109613,0.0632 -0.265601,0.10118 -0.155987,0.0379 -0.324623,0.0379 z"
           style="font-style:normal;font-variant:normal;font-weight:600;font-stretch:normal;font-size:4.21588087px;font-family:Cabin;-inkscape-font-specification:'Cabin, Semi-Bold';font-variant-ligatures:normal;font-variant-caps:normal;font-variant-numeric:normal;font-feature-settings:normal;text-align:start;writing-mode:lr-tb;text-anchor:start;stroke-width:0.26258856"
           id="path18" />
        <path
           d="m 13.04466,230.41931 q -0.269816,0 -0.404725,-0.14756 -0.130692,-0.15177 -0.130692,-0.38364 v -2.67287 h 0.467963 v 2.45364 q 0,0.17707 0.02108,0.25296 0.02108,0.0717 0.07589,0.0927 0.05481,0.0211 0.185499,0.0211 l -0.04637,0.38364 z"
           style="font-style:normal;font-variant:normal;font-weight:600;font-stretch:normal;font-size:4.21588087px;font-family:Cabin;-inkscape-font-specification:'Cabin, Semi-Bold';font-variant-ligatures:normal;font-variant-caps:normal;font-variant-numeric:normal;font-feature-settings:normal;text-align:start;writing-mode:lr-tb;text-anchor:start;stroke-width:0.26258856"
           id="path20" />
        <path
           d="m 15.350747,228.28607 v 2.09108 h -0.434236 l -0.02108,-0.1602 q -0.09275,0.0927 -0.227658,0.14755 -0.130692,0.0548 -0.278248,0.0548 -0.434236,0 -0.640814,-0.25295 -0.206578,-0.25296 -0.206578,-0.72513 v -1.15516 h 0.472179 v 1.11721 q 0,0.31198 0.101181,0.46375 0.105397,0.15177 0.33727,0.15177 0.274033,0 0.425804,-0.19814 v -1.53459 z"
           style="font-style:normal;font-variant:normal;font-weight:600;font-stretch:normal;font-size:4.21588087px;font-family:Cabin;-inkscape-font-specification:'Cabin, Semi-Bold';font-variant-ligatures:normal;font-variant-caps:normal;font-variant-numeric:normal;font-feature-settings:normal;text-align:start;writing-mode:lr-tb;text-anchor:start;stroke-width:0.26258856"
           id="path22" />
        <path
           d="m 16.446744,230.41931 q -0.383645,0 -0.712484,-0.16442 l 0.04637,-0.41737 q 0.324622,0.21079 0.649245,0.21079 0.172851,0 0.261385,-0.0548 0.09275,-0.059 0.09275,-0.17285 0,-0.12648 -0.09275,-0.18972 -0.09275,-0.0632 -0.303544,-0.13912 -0.307759,-0.1054 -0.467962,-0.24031 -0.155988,-0.13491 -0.155988,-0.39208 0,-0.26981 0.202362,-0.44266 0.206579,-0.17285 0.577576,-0.17285 0.345702,0 0.619735,0.15177 l -0.04637,0.40894 q -0.139124,-0.10118 -0.274032,-0.15599 -0.134909,-0.0548 -0.290896,-0.0548 -0.155988,0 -0.240305,0.0632 -0.08432,0.059 -0.08432,0.17285 0,0.0843 0.04638,0.13913 0.04637,0.0548 0.130692,0.0927 0.08853,0.0379 0.274032,0.10539 0.282464,0.1054 0.43002,0.24452 0.151772,0.13491 0.151772,0.38365 0,0.28246 -0.202362,0.45532 -0.202363,0.16863 -0.611303,0.16863 z"
           style="font-style:normal;font-variant:normal;font-weight:600;font-stretch:normal;font-size:4.21588087px;font-family:Cabin;-inkscape-font-specification:'Cabin, Semi-Bold';font-variant-ligatures:normal;font-variant-caps:normal;font-variant-numeric:normal;font-feature-settings:normal;text-align:start;writing-mode:lr-tb;text-anchor:start;stroke-width:0.26258856"
           id="path24" />
        <path
           d="m 17.622645,227.42603 h 0.472179 v 0.48483 h -0.472179 z m 0,0.86004 h 0.472179 v 2.09108 h -0.472179 z"
           style="font-style:normal;font-variant:normal;font-weight:600;font-stretch:normal;font-size:4.21588087px;font-family:Cabin;-inkscape-font-specification:'Cabin, Semi-Bold';font-variant-ligatures:normal;font-variant-caps:normal;font-variant-numeric:normal;font-feature-settings:normal;text-align:start;writing-mode:lr-tb;text-anchor:start;stroke-width:0.26258856"
           id="path26" />
        <path
           d="m 19.5302,230.41931 q -0.324623,0 -0.564928,-0.14334 -0.240305,-0.14756 -0.370997,-0.39629 -0.126477,-0.24874 -0.126477,-0.54807 0,-0.29932 0.126477,-0.54806 0.130692,-0.24874 0.370997,-0.39208 0.240305,-0.14755 0.564928,-0.14755 0.328839,0 0.569144,0.14755 0.240305,0.14334 0.366782,0.39208 0.126476,0.24874 0.126476,0.54806 0,0.29933 -0.126476,0.54807 -0.126477,0.24873 -0.366782,0.39629 -0.240305,0.14334 -0.569144,0.14334 z m 0,-0.39629 q 0.274032,0 0.425804,-0.1855 0.155988,-0.1855 0.155988,-0.50591 0,-0.31619 -0.155988,-0.50169 -0.151772,-0.18971 -0.425804,-0.18971 -0.274032,0 -0.425804,0.18971 -0.151771,0.1855 -0.151771,0.50169 0,0.32041 0.151771,0.50591 0.151772,0.1855 0.425804,0.1855 z"
           style="font-style:normal;font-variant:normal;font-weight:600;font-stretch:normal;font-size:4.21588087px;font-family:Cabin;-inkscape-font-specification:'Cabin, Semi-Bold';font-variant-ligatures:normal;font-variant-caps:normal;font-variant-numeric:normal;font-feature-settings:normal;text-align:start;writing-mode:lr-tb;text-anchor:start;stroke-width:0.26258856"
           id="path28" />
        <path
           d="m 22.011246,228.24813 q 0.408941,0 0.611303,0.25717 0.202362,0.25717 0.202362,0.70827 v 1.16358 h -0.467962 v -1.13407 q 0,-0.31198 -0.109613,-0.45532 -0.105397,-0.14334 -0.354134,-0.14334 -0.295112,0 -0.455315,0.20658 v 1.52615 h -0.472179 v -2.09108 h 0.417372 l 0.01686,0.17286 q 0.269816,-0.2108 0.611302,-0.2108 z"
           style="font-style:normal;font-variant:normal;font-weight:600;font-stretch:normal;font-size:4.21588087px;font-family:Cabin;-inkscape-font-specification:'Cabin, Semi-Bold';font-variant-ligatures:normal;font-variant-caps:normal;font-variant-numeric:normal;font-feature-settings:normal;text-align:start;writing-mode:lr-tb;text-anchor:start;stroke-width:0.26258856"
           id="path30" />
      </g>
    </g>
  </g>
</svg>
