<?xml version="1.0" encoding="UTF-8" standalone="no"?>
<!-- Created with Inkscape (http://www.inkscape.org/) -->

<svg
   xmlns:dc="http://purl.org/dc/elements/1.1/"
   xmlns:cc="http://creativecommons.org/ns#"
   xmlns:rdf="http://www.w3.org/1999/02/22-rdf-syntax-ns#"
   xmlns:svg="http://www.w3.org/2000/svg"
   xmlns="http://www.w3.org/2000/svg"
   xmlns:sodipodi="http://sodipodi.sourceforge.net/DTD/sodipodi-0.dtd"
   xmlns:inkscape="http://www.inkscape.org/namespaces/inkscape"
   width="100"
   height="40.000004"
   viewBox="0 0 26.458333 10.583335"
   version="1.1"
   id="svg947"
   inkscape:version="0.92.4 (5da689c313, 2019-01-14)"
   sodipodi:docname="Information.svg">
  <defs
     id="defs941" />
  <sodipodi:namedview
     id="base"
     pagecolor="#ffffff"
     bordercolor="#666666"
     borderopacity="1.0"
     inkscape:pageopacity="0.0"
     inkscape:pageshadow="2"
     inkscape:zoom="1.1197266"
     inkscape:cx="-92.989699"
     inkscape:cy="-67.479472"
     inkscape:document-units="px"
     inkscape:current-layer="layer1"
     showgrid="false"
     units="px"
     fit-margin-top="0"
     fit-margin-left="0"
     fit-margin-right="0"
     fit-margin-bottom="0"
     inkscape:window-width="1920"
     inkscape:window-height="1017"
     inkscape:window-x="-8"
     inkscape:window-y="-8"
     inkscape:window-maximized="1" />
  <metadata
     id="metadata944">
    <rdf:RDF>
      <cc:Work
         rdf:about="">
        <dc:format>image/svg+xml</dc:format>
        <dc:type
           rdf:resource="http://purl.org/dc/dcmitype/StillImage" />
        <dc:title />
      </cc:Work>
    </rdf:RDF>
  </metadata>
  <g
     inkscape:label="Calque 1"
     inkscape:groupmode="layer"
     id="layer1"
     transform="translate(-28.830952,-120.39605)">
    <g
       id="g1114"
       transform="translate(28.830952,-73.416448)">
      <path
         style="fill:#cfd8dc;fill-opacity:1;stroke:#073762;stroke-width:0.52915454;stroke-linecap:round;stroke-linejoin:round;stroke-miterlimit:4;stroke-dasharray:none;stroke-opacity:1"
         d="M 0.26457727,194.07707 H 26.193757 v 10.05418 H 0.26457727 Z"
         id="rect10-1-7-1-6-2-4" />
      <g
         aria-label="Informations"
         transform="scale(1.0155568,0.9846815)"
         style="font-style:normal;font-variant:normal;font-weight:600;font-stretch:normal;font-size:4.24262238px;line-height:1.25;font-family:Cabin;-inkscape-font-specification:'Cabin, Semi-Bold';font-variant-ligatures:normal;font-variant-caps:normal;font-variant-numeric:normal;font-feature-settings:normal;text-align:start;letter-spacing:0px;word-spacing:0px;writing-mode:lr-tb;text-anchor:start;fill:#000000;fill-opacity:1;stroke:none;stroke-width:0.26425418"
         id="text819-2-5-7-3-1-5">
        <path
           d="m 1.5631819,200.80153 h 0.4921442 v 2.96983 H 1.5631819 Z"
           style="font-style:normal;font-variant:normal;font-weight:600;font-stretch:normal;font-size:4.24262238px;font-family:Cabin;-inkscape-font-specification:'Cabin, Semi-Bold';font-variant-ligatures:normal;font-variant-caps:normal;font-variant-numeric:normal;font-feature-settings:normal;text-align:start;writing-mode:lr-tb;text-anchor:start;stroke-width:0.26425418"
           id="path12" />
        <path
           d="m 3.6451163,201.62884 q 0.4115344,0 0.6151802,0.2588 0.2036459,0.2588 0.2036459,0.71276 v 1.17096 H 3.9930113 v -1.14126 q 0,-0.31396 -0.1103082,-0.45821 -0.1060655,-0.14425 -0.3563802,-0.14425 -0.2969836,0 -0.4582033,0.20789 v 1.53583 H 2.5929459 v -2.10434 h 0.4200197 l 0.01697,0.17395 q 0.2715279,-0.21213 0.6151803,-0.21213 z"
           style="font-style:normal;font-variant:normal;font-weight:600;font-stretch:normal;font-size:4.24262238px;font-family:Cabin;-inkscape-font-specification:'Cabin, Semi-Bold';font-variant-ligatures:normal;font-variant-caps:normal;font-variant-numeric:normal;font-feature-settings:normal;text-align:start;writing-mode:lr-tb;text-anchor:start;stroke-width:0.26425418"
           id="path14" />
        <path
           d="M 5.0571802,202.04886 H 4.7304983 l 0.050911,-0.38184 h 0.2757704 v -0.46669 q 0,-0.28425 0.1612197,-0.44547 0.1612196,-0.16546 0.4582032,-0.16546 0.190918,0 0.3394098,0.0424 l -0.050911,0.39032 q -0.089095,-0.0297 -0.1824328,-0.0297 -0.2545573,0 -0.2545573,0.27578 v 0.3988 h 0.5006294 v 0.38184 H 5.5281113 v 1.7225 H 5.0571802 Z"
           style="font-style:normal;font-variant:normal;font-weight:600;font-stretch:normal;font-size:4.24262238px;font-family:Cabin;-inkscape-font-specification:'Cabin, Semi-Bold';font-variant-ligatures:normal;font-variant-caps:normal;font-variant-numeric:normal;font-feature-settings:normal;text-align:start;writing-mode:lr-tb;text-anchor:start;stroke-width:0.26425418"
           id="path16" />
        <path
           d="m 7.2636753,203.81379 q -0.3266819,0 -0.5685114,-0.14425 -0.2418295,-0.14849 -0.3733508,-0.39881 -0.1272787,-0.25031 -0.1272787,-0.55154 0,-0.30122 0.1272787,-0.55154 0.1315213,-0.25031 0.3733508,-0.39456 0.2418295,-0.14849 0.5685114,-0.14849 0.3309245,0 0.572754,0.14849 0.2418295,0.14425 0.3691081,0.39456 0.1272787,0.25032 0.1272787,0.55154 0,0.30123 -0.1272787,0.55154 -0.1272786,0.25032 -0.3691081,0.39881 -0.2418295,0.14425 -0.572754,0.14425 z m 0,-0.39881 q 0.2757704,0 0.4285048,-0.18667 0.1569771,-0.18668 0.1569771,-0.50912 0,-0.31819 -0.1569771,-0.50487 -0.1527344,-0.19092 -0.4285048,-0.19092 -0.2757705,0 -0.4285049,0.19092 -0.1527344,0.18668 -0.1527344,0.50487 0,0.32244 0.1527344,0.50912 0.1527344,0.18667 0.4285049,0.18667 z"
           style="font-style:normal;font-variant:normal;font-weight:600;font-stretch:normal;font-size:4.24262238px;font-family:Cabin;-inkscape-font-specification:'Cabin, Semi-Bold';font-variant-ligatures:normal;font-variant-caps:normal;font-variant-numeric:normal;font-feature-settings:normal;text-align:start;writing-mode:lr-tb;text-anchor:start;stroke-width:0.26425418"
           id="path18" />
        <path
           d="m 8.7082882,201.66702 h 0.4285049 l 0.025456,0.26729 q 0.1145508,-0.14001 0.2630426,-0.22486 0.1484918,-0.0849 0.3097114,-0.0849 0.042426,0 0.093338,0.008 l -0.038184,0.48366 q -0.067882,-0.0212 -0.1612196,-0.0212 -0.1400066,0 -0.2630426,0.0679 -0.1230361,0.0636 -0.1739475,0.15273 v 1.45522 h -0.483659 z"
           style="font-style:normal;font-variant:normal;font-weight:600;font-stretch:normal;font-size:4.24262238px;font-family:Cabin;-inkscape-font-specification:'Cabin, Semi-Bold';font-variant-ligatures:normal;font-variant-caps:normal;font-variant-numeric:normal;font-feature-settings:normal;text-align:start;writing-mode:lr-tb;text-anchor:start;stroke-width:0.26425418"
           id="path20" />
        <path
           d="m 12.480907,201.62884 q 0.415777,0 0.619423,0.24607 0.203646,0.24183 0.203646,0.70003 v 1.19642 h -0.475174 v -1.17096 q 0,-0.29699 -0.101823,-0.43275 -0.09758,-0.14001 -0.326682,-0.14001 -0.250314,0 -0.360622,0.15274 -0.110309,0.15273 -0.110309,0.40305 v 1.18793 h -0.470931 v -1.14126 q 0,-0.32244 -0.110308,-0.46245 -0.106065,-0.14001 -0.326682,-0.14001 -0.301226,0 -0.462446,0.21214 v 1.53158 h -0.475173 v -2.10434 h 0.394563 l 0.0297,0.18668 q 0.280013,-0.22486 0.632151,-0.22486 0.432747,0 0.63215,0.33517 0.110308,-0.16122 0.288499,-0.24608 0.182432,-0.0891 0.420019,-0.0891 z"
           style="font-style:normal;font-variant:normal;font-weight:600;font-stretch:normal;font-size:4.24262238px;font-family:Cabin;-inkscape-font-specification:'Cabin, Semi-Bold';font-variant-ligatures:normal;font-variant-caps:normal;font-variant-numeric:normal;font-feature-settings:normal;text-align:start;writing-mode:lr-tb;text-anchor:start;stroke-width:0.26425418"
           id="path22" />
        <path
           d="m 14.246237,203.81379 q -0.271528,0 -0.449718,-0.16971 -0.173948,-0.17394 -0.173948,-0.45396 0,-0.27577 0.195161,-0.44123 0.19516,-0.16546 0.466688,-0.23334 0.275771,-0.0721 0.547299,-0.0806 -0.0042,-0.22062 -0.09758,-0.30547 -0.09334,-0.0891 -0.309711,-0.0891 -0.135764,0 -0.271528,0.0424 -0.131521,0.0382 -0.296984,0.12728 l -0.05091,-0.38608 q 0.35638,-0.19516 0.750944,-0.19516 0.381836,0 0.568511,0.21213 0.186676,0.20789 0.186676,0.69155 v 0.52184 q 0,0.16546 0.01273,0.24183 0.01697,0.0721 0.05515,0.10182 0.04243,0.0297 0.135764,0.0297 h 0.0594 l -0.05515,0.38608 h -0.131521 q -0.203646,0 -0.318197,-0.0679 -0.110308,-0.0679 -0.17819,-0.19941 -0.110308,0.12304 -0.280013,0.19516 -0.169705,0.0721 -0.364865,0.0721 z m 0.169705,-0.36911 q 0.106065,0 0.220616,-0.0509 0.118793,-0.0552 0.199403,-0.14849 v -0.4879 q -0.326682,0.0127 -0.526085,0.11455 -0.195161,0.10182 -0.195161,0.29698 0,0.27577 0.301227,0.27577 z"
           style="font-style:normal;font-variant:normal;font-weight:600;font-stretch:normal;font-size:4.24262238px;font-family:Cabin;-inkscape-font-specification:'Cabin, Semi-Bold';font-variant-ligatures:normal;font-variant-caps:normal;font-variant-numeric:normal;font-feature-settings:normal;text-align:start;writing-mode:lr-tb;text-anchor:start;stroke-width:0.26425418"
           id="path24" />
        <path
           d="m 16.518028,203.81379 q -0.27577,0 -0.420019,-0.15698 -0.140007,-0.15698 -0.140007,-0.37759 v -1.23036 h -0.318197 l 0.04243,-0.38184 h 0.27577 v -0.48366 l 0.475174,-0.0509 v 0.53457 h 0.496387 v 0.38184 h -0.496387 v 1.00974 q 0,0.18668 0.02121,0.2588 0.02121,0.0679 0.0891,0.0891 0.07212,0.0212 0.254557,0.0212 h 0.127279 l -0.04243,0.38608 z"
           style="font-style:normal;font-variant:normal;font-weight:600;font-stretch:normal;font-size:4.24262238px;font-family:Cabin;-inkscape-font-specification:'Cabin, Semi-Bold';font-variant-ligatures:normal;font-variant-caps:normal;font-variant-numeric:normal;font-feature-settings:normal;text-align:start;writing-mode:lr-tb;text-anchor:start;stroke-width:0.26425418"
           id="path26" />
        <path
           d="m 17.268111,200.80153 h 0.475173 v 0.4879 h -0.475173 z m 0,0.86549 h 0.475173 v 2.10434 h -0.475173 z"
           style="font-style:normal;font-variant:normal;font-weight:600;font-stretch:normal;font-size:4.24262238px;font-family:Cabin;-inkscape-font-specification:'Cabin, Semi-Bold';font-variant-ligatures:normal;font-variant-caps:normal;font-variant-numeric:normal;font-feature-settings:normal;text-align:start;writing-mode:lr-tb;text-anchor:start;stroke-width:0.26425418"
           id="path28" />
        <path
           d="m 19.187765,203.81379 q -0.326682,0 -0.568512,-0.14425 -0.241829,-0.14849 -0.37335,-0.39881 -0.127279,-0.25031 -0.127279,-0.55154 0,-0.30122 0.127279,-0.55154 0.131521,-0.25031 0.37335,-0.39456 0.24183,-0.14849 0.568512,-0.14849 0.330924,0 0.572754,0.14849 0.241829,0.14425 0.369108,0.39456 0.127279,0.25032 0.127279,0.55154 0,0.30123 -0.127279,0.55154 -0.127279,0.25032 -0.369108,0.39881 -0.24183,0.14425 -0.572754,0.14425 z m 0,-0.39881 q 0.27577,0 0.428505,-0.18667 0.156977,-0.18668 0.156977,-0.50912 0,-0.31819 -0.156977,-0.50487 -0.152735,-0.19092 -0.428505,-0.19092 -0.275771,0 -0.428505,0.19092 -0.152735,0.18668 -0.152735,0.50487 0,0.32244 0.152735,0.50912 0.152734,0.18667 0.428505,0.18667 z"
           style="font-style:normal;font-variant:normal;font-weight:600;font-stretch:normal;font-size:4.24262238px;font-family:Cabin;-inkscape-font-specification:'Cabin, Semi-Bold';font-variant-ligatures:normal;font-variant-caps:normal;font-variant-numeric:normal;font-feature-settings:normal;text-align:start;writing-mode:lr-tb;text-anchor:start;stroke-width:0.26425418"
           id="path30" />
        <path
           d="m 21.684548,201.62884 q 0.411534,0 0.61518,0.2588 0.203646,0.2588 0.203646,0.71276 v 1.17096 h -0.470931 v -1.14126 q 0,-0.31396 -0.110309,-0.45821 -0.106065,-0.14425 -0.35638,-0.14425 -0.296983,0 -0.458203,0.20789 v 1.53583 h -0.475174 v -2.10434 h 0.42002 l 0.01697,0.17395 q 0.271528,-0.21213 0.615181,-0.21213 z"
           style="font-style:normal;font-variant:normal;font-weight:600;font-stretch:normal;font-size:4.24262238px;font-family:Cabin;-inkscape-font-specification:'Cabin, Semi-Bold';font-variant-ligatures:normal;font-variant-caps:normal;font-variant-numeric:normal;font-feature-settings:normal;text-align:start;writing-mode:lr-tb;text-anchor:start;stroke-width:0.26425418"
           id="path32" />
        <path
           d="m 23.583918,203.81379 q -0.386079,0 -0.717004,-0.16546 l 0.04667,-0.42002 q 0.326682,0.21213 0.653364,0.21213 0.173948,0 0.263043,-0.0552 0.09334,-0.0594 0.09334,-0.17394 0,-0.12728 -0.09334,-0.19092 -0.09334,-0.0636 -0.305469,-0.14001 -0.309712,-0.10606 -0.470931,-0.24183 -0.156977,-0.13576 -0.156977,-0.39456 0,-0.27153 0.203646,-0.44548 0.207888,-0.17394 0.581239,-0.17394 0.347895,0 0.623665,0.15273 l -0.04667,0.41153 q -0.140006,-0.10182 -0.27577,-0.15697 -0.135764,-0.0552 -0.292741,-0.0552 -0.156977,0 -0.241829,0.0636 -0.08485,0.0594 -0.08485,0.17395 0,0.0849 0.04667,0.14001 0.04667,0.0551 0.131521,0.0933 0.0891,0.0382 0.275771,0.10607 0.284255,0.10607 0.432747,0.24607 0.152735,0.13577 0.152735,0.38608 0,0.28426 -0.203646,0.4582 -0.203646,0.16971 -0.61518,0.16971 z"
           style="font-style:normal;font-variant:normal;font-weight:600;font-stretch:normal;font-size:4.24262238px;font-family:Cabin;-inkscape-font-specification:'Cabin, Semi-Bold';font-variant-ligatures:normal;font-variant-caps:normal;font-variant-numeric:normal;font-feature-settings:normal;text-align:start;writing-mode:lr-tb;text-anchor:start;stroke-width:0.26425418"
           id="path34" />
      </g>
    </g>
  </g>
</svg>
