<?xml version="1.0" encoding="UTF-8" standalone="no"?>
<!-- Created with Inkscape (http://www.inkscape.org/) -->

<svg
   xmlns:dc="http://purl.org/dc/elements/1.1/"
   xmlns:cc="http://creativecommons.org/ns#"
   xmlns:rdf="http://www.w3.org/1999/02/22-rdf-syntax-ns#"
   xmlns:svg="http://www.w3.org/2000/svg"
   xmlns="http://www.w3.org/2000/svg"
   xmlns:sodipodi="http://sodipodi.sourceforge.net/DTD/sodipodi-0.dtd"
   xmlns:inkscape="http://www.inkscape.org/namespaces/inkscape"
   width="100"
   height="40.000004"
   viewBox="0 0 26.458333 10.583335"
   version="1.1"
   id="svg947"
   inkscape:version="0.92.4 (5da689c313, 2019-01-14)"
   sodipodi:docname="Introduction.svg">
  <defs
     id="defs941" />
  <sodipodi:namedview
     id="base"
     pagecolor="#ffffff"
     bordercolor="#666666"
     borderopacity="1.0"
     inkscape:pageopacity="0.0"
     inkscape:pageshadow="2"
     inkscape:zoom="1.1197266"
     inkscape:cx="-74.247329"
     inkscape:cy="-111.78087"
     inkscape:document-units="px"
     inkscape:current-layer="layer1"
     showgrid="false"
     units="px"
     fit-margin-top="0"
     fit-margin-left="0"
     fit-margin-right="0"
     fit-margin-bottom="0"
     inkscape:window-width="1920"
     inkscape:window-height="1017"
     inkscape:window-x="-8"
     inkscape:window-y="-8"
     inkscape:window-maximized="1" />
  <metadata
     id="metadata944">
    <rdf:RDF>
      <cc:Work
         rdf:about="">
        <dc:format>image/svg+xml</dc:format>
        <dc:type
           rdf:resource="http://purl.org/dc/dcmitype/StillImage" />
        <dc:title />
      </cc:Work>
    </rdf:RDF>
  </metadata>
  <g
     inkscape:label="Calque 1"
     inkscape:groupmode="layer"
     id="layer1"
     transform="translate(-23.872033,-108.67464)">
    <g
       transform="translate(23.872033,-177.74203)"
       id="g1149">
      <path
         style="fill:#cfd8dc;fill-opacity:1;stroke:#073762;stroke-width:0.52915454;stroke-linecap:round;stroke-linejoin:round;stroke-miterlimit:4;stroke-dasharray:none;stroke-opacity:1"
         d="M 0.26457727,286.68124 H 26.193757 v 10.05418 H 0.26457727 Z"
         id="rect10" />
      <g
         aria-label="Introduction"
         transform="scale(1.0154516,0.98478351)"
         style="font-style:normal;font-variant:normal;font-weight:600;font-stretch:normal;font-size:4.24218273px;line-height:1.25;font-family:Cabin;-inkscape-font-specification:'Cabin, Semi-Bold';font-variant-ligatures:normal;font-variant-caps:normal;font-variant-numeric:normal;font-feature-settings:normal;text-align:start;letter-spacing:0px;word-spacing:0px;writing-mode:lr-tb;text-anchor:start;fill:#000000;fill-opacity:1;stroke:none;stroke-width:0.26422682"
         id="text819">
        <path
           d="m 2.0844584,294.81578 h 0.4920932 v 2.96953 H 2.0844584 Z"
           style="font-style:normal;font-variant:normal;font-weight:600;font-stretch:normal;font-size:4.24218273px;font-family:Cabin;-inkscape-font-specification:'Cabin, Semi-Bold';font-variant-ligatures:normal;font-variant-caps:normal;font-variant-numeric:normal;font-feature-settings:normal;text-align:start;writing-mode:lr-tb;text-anchor:start;stroke-width:0.26422682"
           id="path12" />
        <path
           d="m 4.1661771,295.64301 q 0.4114917,0 0.6151165,0.25877 0.2036248,0.25877 0.2036248,0.71269 v 1.17084 H 4.5140361 v -1.14115 q 0,-0.31392 -0.1102968,-0.45815 -0.1060545,-0.14424 -0.3563433,-0.14424 -0.2969528,0 -0.4581558,0.20787 v 1.53567 H 3.1141158 v -2.10412 h 0.4199761 l 0.016969,0.17393 q 0.2714997,-0.21211 0.6151165,-0.21211 z"
           style="font-style:normal;font-variant:normal;font-weight:600;font-stretch:normal;font-size:4.24218273px;font-family:Cabin;-inkscape-font-specification:'Cabin, Semi-Bold';font-variant-ligatures:normal;font-variant-caps:normal;font-variant-numeric:normal;font-feature-settings:normal;text-align:start;writing-mode:lr-tb;text-anchor:start;stroke-width:0.26422682"
           id="path14" />
        <path
           d="m 6.1340196,297.82773 q -0.2757419,0 -0.4199761,-0.15696 -0.139992,-0.15696 -0.139992,-0.37755 v -1.23024 H 5.2558878 l 0.042422,-0.38179 h 0.2757419 v -0.48361 l 0.4751244,-0.0509 v 0.53452 h 0.4963354 v 0.38179 H 6.0491759 v 1.00964 q 0,0.18666 0.021211,0.25878 0.021211,0.0679 0.089086,0.0891 0.072117,0.0212 0.2545309,0.0212 h 0.1272655 l -0.042422,0.38604 z"
           style="font-style:normal;font-variant:normal;font-weight:600;font-stretch:normal;font-size:4.24218273px;font-family:Cabin;-inkscape-font-specification:'Cabin, Semi-Bold';font-variant-ligatures:normal;font-variant-caps:normal;font-variant-numeric:normal;font-feature-settings:normal;text-align:start;writing-mode:lr-tb;text-anchor:start;stroke-width:0.26422682"
           id="path16" />
        <path
           d="m 6.884024,295.68119 h 0.4284604 l 0.025453,0.26725 q 0.1145389,-0.13999 0.2630153,-0.22483 0.1484764,-0.0849 0.3096794,-0.0849 0.042422,0 0.093328,0.008 l -0.03818,0.48361 q -0.067875,-0.0212 -0.161203,-0.0212 -0.139992,0 -0.2630153,0.0679 -0.1230233,0.0636 -0.1739295,0.15272 v 1.45507 H 6.884024 Z"
           style="font-style:normal;font-variant:normal;font-weight:600;font-stretch:normal;font-size:4.24218273px;font-family:Cabin;-inkscape-font-specification:'Cabin, Semi-Bold';font-variant-ligatures:normal;font-variant-caps:normal;font-variant-numeric:normal;font-feature-settings:normal;text-align:start;writing-mode:lr-tb;text-anchor:start;stroke-width:0.26422682"
           id="path18" />
        <path
           d="m 9.1597562,297.82773 q -0.3266481,0 -0.5684525,-0.14423 -0.2418044,-0.14848 -0.3733121,-0.39877 -0.1272654,-0.25029 -0.1272654,-0.55148 0,-0.3012 0.1272654,-0.55149 0.1315077,-0.25029 0.3733121,-0.39452 0.2418044,-0.14848 0.5684525,-0.14848 0.3308903,0 0.5726947,0.14848 0.2418044,0.14423 0.3690701,0.39452 0.127265,0.25029 0.127265,0.55149 0,0.30119 -0.127265,0.55148 -0.1272657,0.25029 -0.3690701,0.39877 -0.2418044,0.14423 -0.5726947,0.14423 z m 0,-0.39876 q 0.2757419,0 0.4284605,-0.18666 0.1569607,-0.18666 0.1569607,-0.50906 0,-0.31817 -0.1569607,-0.50482 -0.1527186,-0.1909 -0.4284605,-0.1909 -0.2757419,0 -0.4284604,0.1909 -0.1527186,0.18665 -0.1527186,0.50482 0,0.3224 0.1527186,0.50906 0.1527185,0.18666 0.4284604,0.18666 z"
           style="font-style:normal;font-variant:normal;font-weight:600;font-stretch:normal;font-size:4.24218273px;font-family:Cabin;-inkscape-font-specification:'Cabin, Semi-Bold';font-variant-ligatures:normal;font-variant-caps:normal;font-variant-numeric:normal;font-feature-settings:normal;text-align:start;writing-mode:lr-tb;text-anchor:start;stroke-width:0.26422682"
           id="path20" />
        <path
           d="m 12.504718,294.60367 v 3.18164 h -0.436945 l -0.02121,-0.17817 q -0.241805,0.22059 -0.598148,0.22059 -0.292711,0 -0.513304,-0.14423 -0.220594,-0.14848 -0.339375,-0.39453 -0.118781,-0.25029 -0.118781,-0.55148 0,-0.29695 0.114539,-0.54724 0.118781,-0.25029 0.335133,-0.39877 0.220593,-0.14847 0.521788,-0.14847 0.343617,0 0.581179,0.20362 v -1.24296 z m -0.984187,2.8253 q 0.250289,0 0.394523,-0.18242 0.148477,-0.18241 0.148477,-0.50906 0,-0.32241 -0.148477,-0.50906 -0.148476,-0.18666 -0.394523,-0.18666 -0.258773,0 -0.407249,0.19514 -0.148477,0.1909 -0.148477,0.50058 0,0.30544 0.148477,0.50058 0.148476,0.1909 0.407249,0.1909 z"
           style="font-style:normal;font-variant:normal;font-weight:600;font-stretch:normal;font-size:4.24218273px;font-family:Cabin;-inkscape-font-specification:'Cabin, Semi-Bold';font-variant-ligatures:normal;font-variant-caps:normal;font-variant-numeric:normal;font-feature-settings:normal;text-align:start;writing-mode:lr-tb;text-anchor:start;stroke-width:0.26422682"
           id="path22" />
        <path
           d="m 14.797418,295.68119 v 2.10412 h -0.436944 l -0.02121,-0.1612 q -0.09333,0.0933 -0.229078,0.14847 -0.131508,0.0551 -0.279984,0.0551 -0.436945,0 -0.644812,-0.25453 -0.207867,-0.25453 -0.207867,-0.72966 v -1.16235 h 0.475124 v 1.12417 q 0,0.31393 0.101813,0.46664 0.106054,0.15272 0.339374,0.15272 0.275742,0 0.428461,-0.19938 v -1.54415 z"
           style="font-style:normal;font-variant:normal;font-weight:600;font-stretch:normal;font-size:4.24218273px;font-family:Cabin;-inkscape-font-specification:'Cabin, Semi-Bold';font-variant-ligatures:normal;font-variant-caps:normal;font-variant-numeric:normal;font-feature-settings:normal;text-align:start;writing-mode:lr-tb;text-anchor:start;stroke-width:0.26422682"
           id="path24" />
        <path
           d="m 16.277807,297.82773 q -0.347859,0 -0.598147,-0.14423 -0.246047,-0.14424 -0.373313,-0.39028 -0.127265,-0.24605 -0.127265,-0.55149 0,-0.31392 0.123023,-0.56421 0.127266,-0.25029 0.377555,-0.39452 0.250288,-0.14424 0.619358,-0.14424 0.318164,0 0.568453,0.13151 l -0.05091,0.39028 q -0.246046,-0.11878 -0.487851,-0.11878 -0.318163,0 -0.492093,0.18666 -0.173929,0.18665 -0.173929,0.50482 0,0.31392 0.173929,0.50482 0.17393,0.1909 0.483609,0.1909 0.263015,0 0.500578,-0.13575 l 0.05091,0.39452 q -0.110297,0.0636 -0.267258,0.10181 -0.15696,0.0382 -0.326648,0.0382 z"
           style="font-style:normal;font-variant:normal;font-weight:600;font-stretch:normal;font-size:4.24218273px;font-family:Cabin;-inkscape-font-specification:'Cabin, Semi-Bold';font-variant-ligatures:normal;font-variant-caps:normal;font-variant-numeric:normal;font-feature-settings:normal;text-align:start;writing-mode:lr-tb;text-anchor:start;stroke-width:0.26422682"
           id="path26" />
        <path
           d="m 17.93259,297.82773 q -0.275742,0 -0.419976,-0.15696 -0.139992,-0.15696 -0.139992,-0.37755 v -1.23024 h -0.318164 l 0.04242,-0.38179 h 0.275742 v -0.48361 l 0.475125,-0.0509 v 0.53452 h 0.496335 v 0.38179 h -0.496335 v 1.00964 q 0,0.18666 0.02121,0.25878 0.02121,0.0679 0.08909,0.0891 0.07212,0.0212 0.254531,0.0212 h 0.127266 l -0.04242,0.38604 z"
           style="font-style:normal;font-variant:normal;font-weight:600;font-stretch:normal;font-size:4.24218273px;font-family:Cabin;-inkscape-font-specification:'Cabin, Semi-Bold';font-variant-ligatures:normal;font-variant-caps:normal;font-variant-numeric:normal;font-feature-settings:normal;text-align:start;writing-mode:lr-tb;text-anchor:start;stroke-width:0.26422682"
           id="path28" />
        <path
           d="m 18.682595,294.81578 h 0.475124 v 0.48785 h -0.475124 z m 0,0.86541 h 0.475124 v 2.10412 h -0.475124 z"
           style="font-style:normal;font-variant:normal;font-weight:600;font-stretch:normal;font-size:4.24218273px;font-family:Cabin;-inkscape-font-specification:'Cabin, Semi-Bold';font-variant-ligatures:normal;font-variant-caps:normal;font-variant-numeric:normal;font-feature-settings:normal;text-align:start;writing-mode:lr-tb;text-anchor:start;stroke-width:0.26422682"
           id="path30" />
        <path
           d="m 20.602051,297.82773 q -0.326648,0 -0.568453,-0.14423 -0.241804,-0.14848 -0.373312,-0.39877 -0.127265,-0.25029 -0.127265,-0.55148 0,-0.3012 0.127265,-0.55149 0.131508,-0.25029 0.373312,-0.39452 0.241805,-0.14848 0.568453,-0.14848 0.33089,0 0.572694,0.14848 0.241805,0.14423 0.36907,0.39452 0.127266,0.25029 0.127266,0.55149 0,0.30119 -0.127266,0.55148 -0.127265,0.25029 -0.36907,0.39877 -0.241804,0.14423 -0.572694,0.14423 z m 0,-0.39876 q 0.275742,0 0.42846,-0.18666 0.156961,-0.18666 0.156961,-0.50906 0,-0.31817 -0.156961,-0.50482 -0.152718,-0.1909 -0.42846,-0.1909 -0.275742,0 -0.428461,0.1909 -0.152718,0.18665 -0.152718,0.50482 0,0.3224 0.152718,0.50906 0.152719,0.18666 0.428461,0.18666 z"
           style="font-style:normal;font-variant:normal;font-weight:600;font-stretch:normal;font-size:4.24218273px;font-family:Cabin;-inkscape-font-specification:'Cabin, Semi-Bold';font-variant-ligatures:normal;font-variant-caps:normal;font-variant-numeric:normal;font-feature-settings:normal;text-align:start;writing-mode:lr-tb;text-anchor:start;stroke-width:0.26422682"
           id="path32" />
        <path
           d="m 23.098574,295.64301 q 0.411492,0 0.615117,0.25877 0.203624,0.25877 0.203624,0.71269 v 1.17084 h -0.470882 v -1.14115 q 0,-0.31392 -0.110297,-0.45815 -0.106054,-0.14424 -0.356343,-0.14424 -0.296953,0 -0.458156,0.20787 v 1.53567 h -0.475124 v -2.10412 h 0.419976 l 0.01697,0.17393 q 0.271499,-0.21211 0.615116,-0.21211 z"
           style="font-style:normal;font-variant:normal;font-weight:600;font-stretch:normal;font-size:4.24218273px;font-family:Cabin;-inkscape-font-specification:'Cabin, Semi-Bold';font-variant-ligatures:normal;font-variant-caps:normal;font-variant-numeric:normal;font-feature-settings:normal;text-align:start;writing-mode:lr-tb;text-anchor:start;stroke-width:0.26422682"
           id="path34" />
      </g>
    </g>
  </g>
</svg>
