<?xml version="1.0" encoding="UTF-8" standalone="no"?>
<!-- Created with Inkscape (http://www.inkscape.org/) -->

<svg
   xmlns:dc="http://purl.org/dc/elements/1.1/"
   xmlns:cc="http://creativecommons.org/ns#"
   xmlns:rdf="http://www.w3.org/1999/02/22-rdf-syntax-ns#"
   xmlns:svg="http://www.w3.org/2000/svg"
   xmlns="http://www.w3.org/2000/svg"
   xmlns:sodipodi="http://sodipodi.sourceforge.net/DTD/sodipodi-0.dtd"
   xmlns:inkscape="http://www.inkscape.org/namespaces/inkscape"
   width="100"
   height="40.000004"
   viewBox="0 0 26.458333 10.583335"
   version="1.1"
   id="svg947"
   inkscape:version="0.92.4 (5da689c313, 2019-01-14)"
   sodipodi:docname="Partie3.svg">
  <defs
     id="defs941" />
  <sodipodi:namedview
     id="base"
     pagecolor="#ffffff"
     bordercolor="#666666"
     borderopacity="1.0"
     inkscape:pageopacity="0.0"
     inkscape:pageshadow="2"
     inkscape:zoom="1.1197266"
     inkscape:cx="-74.247329"
     inkscape:cy="-111.78087"
     inkscape:document-units="px"
     inkscape:current-layer="layer1"
     showgrid="false"
     units="px"
     fit-margin-top="0"
     fit-margin-left="0"
     fit-margin-right="0"
     fit-margin-bottom="0"
     inkscape:window-width="1920"
     inkscape:window-height="1017"
     inkscape:window-x="-8"
     inkscape:window-y="-8"
     inkscape:window-maximized="1" />
  <metadata
     id="metadata944">
    <rdf:RDF>
      <cc:Work
         rdf:about="">
        <dc:format>image/svg+xml</dc:format>
        <dc:type
           rdf:resource="http://purl.org/dc/dcmitype/StillImage" />
        <dc:title />
      </cc:Work>
    </rdf:RDF>
  </metadata>
  <g
     inkscape:label="Calque 1"
     inkscape:groupmode="layer"
     id="layer1"
     transform="translate(-23.872033,-108.67464)">
    <g
       transform="translate(23.872033,-138.05453)"
       id="g1134">
      <path
         style="fill:#cfd8dc;fill-opacity:1;stroke:#073762;stroke-width:0.52915454;stroke-linecap:round;stroke-linejoin:round;stroke-miterlimit:4;stroke-dasharray:none;stroke-opacity:1"
         d="M 0.26457727,246.99374 H 26.193757 v 10.05418 H 0.26457727 Z"
         id="rect10-1-7" />
      <g
         aria-label="Partie III"
         transform="scale(0.98040041,1.0199914)"
         style="font-style:normal;font-variant:normal;font-weight:600;font-stretch:normal;font-size:4.38418484px;line-height:1.25;font-family:Cabin;-inkscape-font-specification:'Cabin, Semi-Bold';font-variant-ligatures:normal;font-variant-caps:normal;font-variant-numeric:normal;font-feature-settings:normal;text-align:start;letter-spacing:0px;word-spacing:0px;writing-mode:lr-tb;text-anchor:start;fill:#000000;fill-opacity:1;stroke:none;stroke-width:0.2730715"
         id="text819-2-5">
        <path
           d="m 6.0721367,245.52494 h 1.0653569 q 1.0697411,0 1.0697411,0.99083 0,0.50856 -0.2762037,0.75846 -0.2762036,0.2499 -0.7891532,0.2499 H 6.5894705 v 1.06974 H 6.0721367 Z m 1.0083625,1.56516 q 0.3068929,0 0.4559552,-0.13591 0.1534465,-0.1403 0.1534465,-0.42965 0,-0.29374 -0.1534465,-0.42965 -0.1490623,-0.13591 -0.4647236,-0.13591 H 6.5894705 v 1.13112 z"
           style="font-style:normal;font-variant:normal;font-weight:600;font-stretch:normal;font-size:4.38418484px;font-family:Cabin;-inkscape-font-specification:'Cabin, Semi-Bold';font-variant-ligatures:normal;font-variant-caps:normal;font-variant-numeric:normal;font-feature-settings:normal;text-align:start;writing-mode:lr-tb;text-anchor:start;stroke-width:0.2730715"
           id="path12" />
        <path
           d="m 8.9885786,248.63771 q -0.2805879,0 -0.4647236,-0.17536 -0.1797516,-0.17976 -0.1797516,-0.46911 0,-0.28497 0.2016725,-0.45596 0.2016725,-0.17098 0.4822603,-0.24113 0.2849721,-0.0745 0.5655599,-0.0833 -0.00438,-0.22797 -0.1008363,-0.31566 -0.096452,-0.0921 -0.3200455,-0.0921 -0.1402939,0 -0.2805878,0.0439 -0.1359097,0.0394 -0.3068929,0.13152 l -0.05261,-0.39896 q 0.3682715,-0.20167 0.7760007,-0.20167 0.3945766,0 0.5874807,0.21921 0.1929042,0.21482 0.1929042,0.71462 v 0.53925 q 0,0.17099 0.01315,0.2499 0.01754,0.0745 0.05699,0.10522 0.04384,0.0307 0.140294,0.0307 h 0.06138 l -0.05699,0.39896 h -0.13591 q -0.2104406,0 -0.3288136,-0.0701 -0.1139888,-0.0701 -0.1841357,-0.20606 -0.1139888,0.12714 -0.2893562,0.20167 -0.1753674,0.0745 -0.3770399,0.0745 z m 0.1753674,-0.38142 q 0.1096046,0 0.2279776,-0.0526 0.1227572,-0.057 0.2060567,-0.15345 v -0.50418 q -0.3375823,0.0131 -0.543639,0.11837 -0.2016725,0.10523 -0.2016725,0.3069 0,0.28497 0.3112772,0.28497 z"
           style="font-style:normal;font-variant:normal;font-weight:600;font-stretch:normal;font-size:4.38418484px;font-family:Cabin;-inkscape-font-specification:'Cabin, Semi-Bold';font-variant-ligatures:normal;font-variant-caps:normal;font-variant-numeric:normal;font-feature-settings:normal;text-align:start;writing-mode:lr-tb;text-anchor:start;stroke-width:0.2730715"
           id="path14" />
        <path
           d="m 10.655597,246.41932 h 0.442802 l 0.0263,0.2762 q 0.118373,-0.14468 0.27182,-0.23236 0.153446,-0.0877 0.320045,-0.0877 0.04384,0 0.09645,0.009 l -0.03946,0.4998 q -0.07015,-0.0219 -0.166599,-0.0219 -0.144678,0 -0.27182,0.0701 -0.127141,0.0658 -0.179751,0.15783 v 1.50377 h -0.499797 z"
           style="font-style:normal;font-variant:normal;font-weight:600;font-stretch:normal;font-size:4.38418484px;font-family:Cabin;-inkscape-font-specification:'Cabin, Semi-Bold';font-variant-ligatures:normal;font-variant-caps:normal;font-variant-numeric:normal;font-feature-settings:normal;text-align:start;writing-mode:lr-tb;text-anchor:start;stroke-width:0.2730715"
           id="path16" />
        <path
           d="m 12.800422,248.63771 q -0.284972,0 -0.434035,-0.16221 -0.144678,-0.16222 -0.144678,-0.39019 v -1.27142 h -0.328814 l 0.04384,-0.39457 h 0.284972 v -0.4998 l 0.491029,-0.0526 v 0.55241 h 0.512949 v 0.39457 h -0.512949 v 1.04344 q 0,0.1929 0.02192,0.26743 0.02192,0.0701 0.09207,0.0921 0.07453,0.0219 0.263051,0.0219 h 0.131525 l -0.04384,0.39896 z"
           style="font-style:normal;font-variant:normal;font-weight:600;font-stretch:normal;font-size:4.38418484px;font-family:Cabin;-inkscape-font-specification:'Cabin, Semi-Bold';font-variant-ligatures:normal;font-variant-caps:normal;font-variant-numeric:normal;font-feature-settings:normal;text-align:start;writing-mode:lr-tb;text-anchor:start;stroke-width:0.2730715"
           id="path18" />
        <path
           d="m 13.575532,245.52494 h 0.491029 v 0.50418 h -0.491029 z m 0,0.89438 h 0.491029 v 2.17455 h -0.491029 z"
           style="font-style:normal;font-variant:normal;font-weight:600;font-stretch:normal;font-size:4.38418484px;font-family:Cabin;-inkscape-font-specification:'Cabin, Semi-Bold';font-variant-ligatures:normal;font-variant-caps:normal;font-variant-numeric:normal;font-feature-settings:normal;text-align:start;writing-mode:lr-tb;text-anchor:start;stroke-width:0.2730715"
           id="path20" />
        <path
           d="m 15.63377,248.63771 q -0.37704,0 -0.644475,-0.15344 -0.263051,-0.15345 -0.398961,-0.41212 -0.13591,-0.26305 -0.13591,-0.58309 0,-0.3069 0.122757,-0.55679 0.127142,-0.25429 0.368272,-0.40335 0.245514,-0.14906 0.574328,-0.14906 0.289356,0 0.499797,0.12276 0.214825,0.11837 0.32443,0.32881 0.113989,0.21044 0.113989,0.48226 0,0.14029 -0.03069,0.26744 H 14.96299 q 0.03946,0.33758 0.232362,0.49102 0.197288,0.15345 0.486644,0.15345 0.355119,0 0.644475,-0.16221 l 0.03507,0.40772 q -0.333198,0.1666 -0.727775,0.1666 z m 0.32443,-1.38978 q 0,-0.19291 -0.109605,-0.32443 -0.109605,-0.13153 -0.333198,-0.13153 -0.425266,0 -0.534871,0.45596 z"
           style="font-style:normal;font-variant:normal;font-weight:600;font-stretch:normal;font-size:4.38418484px;font-family:Cabin;-inkscape-font-specification:'Cabin, Semi-Bold';font-variant-ligatures:normal;font-variant-caps:normal;font-variant-numeric:normal;font-feature-settings:normal;text-align:start;writing-mode:lr-tb;text-anchor:start;stroke-width:0.2730715"
           id="path22" />
        <path
           d="m 17.90601,245.52494 h 0.508566 v 3.06893 H 17.90601 Z"
           style="font-style:normal;font-variant:normal;font-weight:600;font-stretch:normal;font-size:4.38418484px;font-family:Cabin;-inkscape-font-specification:'Cabin, Semi-Bold';font-variant-ligatures:normal;font-variant-caps:normal;font-variant-numeric:normal;font-feature-settings:normal;text-align:start;writing-mode:lr-tb;text-anchor:start;stroke-width:0.2730715"
           id="path24" />
        <path
           d="m 19.096248,245.52494 h 0.508566 v 3.06893 h -0.508566 z"
           style="font-style:normal;font-variant:normal;font-weight:600;font-stretch:normal;font-size:4.38418484px;font-family:Cabin;-inkscape-font-specification:'Cabin, Semi-Bold';font-variant-ligatures:normal;font-variant-caps:normal;font-variant-numeric:normal;font-feature-settings:normal;text-align:start;writing-mode:lr-tb;text-anchor:start;stroke-width:0.2730715"
           id="path26" />
        <path
           d="m 20.286485,245.52494 h 0.508566 v 3.06893 h -0.508566 z"
           style="font-style:normal;font-variant:normal;font-weight:600;font-stretch:normal;font-size:4.38418484px;font-family:Cabin;-inkscape-font-specification:'Cabin, Semi-Bold';font-variant-ligatures:normal;font-variant-caps:normal;font-variant-numeric:normal;font-feature-settings:normal;text-align:start;writing-mode:lr-tb;text-anchor:start;stroke-width:0.2730715"
           id="path28" />
      </g>
    </g>
  </g>
</svg>
