<?xml version="1.0" encoding="UTF-8" standalone="no"?>
<!-- Created with Inkscape (http://www.inkscape.org/) -->

<svg
   xmlns:dc="http://purl.org/dc/elements/1.1/"
   xmlns:cc="http://creativecommons.org/ns#"
   xmlns:rdf="http://www.w3.org/1999/02/22-rdf-syntax-ns#"
   xmlns:svg="http://www.w3.org/2000/svg"
   xmlns="http://www.w3.org/2000/svg"
   xmlns:sodipodi="http://sodipodi.sourceforge.net/DTD/sodipodi-0.dtd"
   xmlns:inkscape="http://www.inkscape.org/namespaces/inkscape"
   width="100"
   height="40.000004"
   viewBox="0 0 26.458333 10.583335"
   version="1.1"
   id="svg919"
   inkscape:version="0.92.4 (5da689c313, 2019-01-14)"
   sodipodi:docname="Information.svg">
  <defs
     id="defs913" />
  <sodipodi:namedview
     id="base"
     pagecolor="#ffffff"
     bordercolor="#666666"
     borderopacity="1.0"
     inkscape:pageopacity="0.0"
     inkscape:pageshadow="2"
     inkscape:zoom="5.6568542"
     inkscape:cx="30.134661"
     inkscape:cy="17.30317"
     inkscape:document-units="px"
     inkscape:current-layer="layer1"
     showgrid="false"
     units="px"
     fit-margin-top="0"
     fit-margin-left="0"
     fit-margin-right="0"
     fit-margin-bottom="0"
     inkscape:window-width="1920"
     inkscape:window-height="1017"
     inkscape:window-x="-8"
     inkscape:window-y="-8"
     inkscape:window-maximized="1" />
  <metadata
     id="metadata916">
    <rdf:RDF>
      <cc:Work
         rdf:about="">
        <dc:format>image/svg+xml</dc:format>
        <dc:type
           rdf:resource="http://purl.org/dc/dcmitype/StillImage" />
        <dc:title />
      </cc:Work>
    </rdf:RDF>
  </metadata>
  <g
     inkscape:label="Calque 1"
     inkscape:groupmode="layer"
     id="layer1"
     transform="translate(-48.915841,-95.585303)">
    <g
       id="g4751"
       transform="matrix(1.0000057,0,0,1.0000149,-9.2929028,-98.230139)">
      <path
         style="fill:#134c69;fill-opacity:1;stroke:#001323;stroke-width:0.52899998;stroke-linecap:round;stroke-linejoin:round;stroke-miterlimit:4;stroke-dasharray:none;stroke-opacity:1"
         d="m 58.472912,194.07706 h 25.92918 v 10.05418 h -25.92918 z"
         id="rect10-1-7-1-6-2-4-9-5" />
      <g
         aria-label="Informations"
         transform="scale(1.0155568,0.98468151)"
         style="font-style:normal;font-variant:normal;font-weight:600;font-stretch:normal;font-size:4.24262238px;line-height:1.25;font-family:Cabin;-inkscape-font-specification:'Cabin, Semi-Bold';font-variant-ligatures:normal;font-variant-caps:normal;font-variant-numeric:normal;font-feature-settings:normal;text-align:start;letter-spacing:0px;word-spacing:0px;writing-mode:lr-tb;text-anchor:start;fill:#dcdcdc;fill-opacity:0.57647059;stroke:none;stroke-width:0.26425418"
         id="text819-2-5-7-3-1-5-0-9">
        <path
           d="m 58.879852,200.80151 h 0.492144 v 2.96984 h -0.492144 z"
           style="font-style:normal;font-variant:normal;font-weight:600;font-stretch:normal;font-size:4.24262238px;font-family:Cabin;-inkscape-font-specification:'Cabin, Semi-Bold';font-variant-ligatures:normal;font-variant-caps:normal;font-variant-numeric:normal;font-feature-settings:normal;text-align:start;writing-mode:lr-tb;text-anchor:start;fill:#dcdcdc;fill-opacity:0.57647059;stroke-width:0.26425418"
           id="path12" />
        <path
           d="m 60.961786,201.62882 q 0.411535,0 0.61518,0.2588 0.203646,0.2588 0.203646,0.71276 v 1.17097 h -0.470931 v -1.14127 q 0,-0.31395 -0.110308,-0.4582 -0.106065,-0.14425 -0.35638,-0.14425 -0.296984,0 -0.458203,0.20789 v 1.53583 h -0.475174 v -2.10434 h 0.420019 l 0.01697,0.17394 q 0.271528,-0.21213 0.61518,-0.21213 z"
           style="font-style:normal;font-variant:normal;font-weight:600;font-stretch:normal;font-size:4.24262238px;font-family:Cabin;-inkscape-font-specification:'Cabin, Semi-Bold';font-variant-ligatures:normal;font-variant-caps:normal;font-variant-numeric:normal;font-feature-settings:normal;text-align:start;writing-mode:lr-tb;text-anchor:start;fill:#dcdcdc;fill-opacity:0.57647059;stroke-width:0.26425418"
           id="path14" />
        <path
           d="m 62.37385,202.04884 h -0.326682 l 0.05091,-0.38183 h 0.27577 v -0.46669 q 0,-0.28426 0.16122,-0.44548 0.161219,-0.16546 0.458203,-0.16546 0.190918,0 0.33941,0.0424 l -0.05091,0.39032 q -0.0891,-0.0297 -0.182432,-0.0297 -0.254558,0 -0.254558,0.27577 v 0.39881 h 0.50063 v 0.38183 h -0.50063 v 1.72251 H 62.37385 Z"
           style="font-style:normal;font-variant:normal;font-weight:600;font-stretch:normal;font-size:4.24262238px;font-family:Cabin;-inkscape-font-specification:'Cabin, Semi-Bold';font-variant-ligatures:normal;font-variant-caps:normal;font-variant-numeric:normal;font-feature-settings:normal;text-align:start;writing-mode:lr-tb;text-anchor:start;fill:#dcdcdc;fill-opacity:0.57647059;stroke-width:0.26425418"
           id="path16" />
        <path
           d="m 64.580345,203.81377 q -0.326682,0 -0.568511,-0.14425 -0.24183,-0.14849 -0.373351,-0.3988 -0.127279,-0.25032 -0.127279,-0.55154 0,-0.30123 0.127279,-0.55154 0.131521,-0.25032 0.373351,-0.39457 0.241829,-0.14849 0.568511,-0.14849 0.330925,0 0.572754,0.14849 0.24183,0.14425 0.369108,0.39457 0.127279,0.25031 0.127279,0.55154 0,0.30122 -0.127279,0.55154 -0.127278,0.25031 -0.369108,0.3988 -0.241829,0.14425 -0.572754,0.14425 z m 0,-0.3988 q 0.275771,0 0.428505,-0.18668 0.156977,-0.18667 0.156977,-0.50911 0,-0.3182 -0.156977,-0.50488 -0.152734,-0.19091 -0.428505,-0.19091 -0.27577,0 -0.428505,0.19091 -0.152734,0.18668 -0.152734,0.50488 0,0.32244 0.152734,0.50911 0.152735,0.18668 0.428505,0.18668 z"
           style="font-style:normal;font-variant:normal;font-weight:600;font-stretch:normal;font-size:4.24262238px;font-family:Cabin;-inkscape-font-specification:'Cabin, Semi-Bold';font-variant-ligatures:normal;font-variant-caps:normal;font-variant-numeric:normal;font-feature-settings:normal;text-align:start;writing-mode:lr-tb;text-anchor:start;fill:#dcdcdc;fill-opacity:0.57647059;stroke-width:0.26425418"
           id="path18" />
        <path
           d="m 66.024958,201.66701 h 0.428505 l 0.02546,0.26728 q 0.114551,-0.14 0.263042,-0.22486 0.148492,-0.0848 0.309712,-0.0848 0.04243,0 0.09334,0.008 l -0.03818,0.48365 q -0.06788,-0.0212 -0.16122,-0.0212 -0.140006,0 -0.263042,0.0679 -0.123036,0.0636 -0.173948,0.15274 v 1.45522 h -0.483659 z"
           style="font-style:normal;font-variant:normal;font-weight:600;font-stretch:normal;font-size:4.24262238px;font-family:Cabin;-inkscape-font-specification:'Cabin, Semi-Bold';font-variant-ligatures:normal;font-variant-caps:normal;font-variant-numeric:normal;font-feature-settings:normal;text-align:start;writing-mode:lr-tb;text-anchor:start;fill:#dcdcdc;fill-opacity:0.57647059;stroke-width:0.26425418"
           id="path20" />
        <path
           d="m 69.797577,201.62882 q 0.415777,0 0.619423,0.24607 0.203646,0.24183 0.203646,0.70004 v 1.19642 h -0.475174 v -1.17097 q 0,-0.29698 -0.101823,-0.43274 -0.09758,-0.14001 -0.326682,-0.14001 -0.250314,0 -0.360623,0.15273 -0.110308,0.15274 -0.110308,0.40305 v 1.18794 h -0.470931 v -1.14127 q 0,-0.32244 -0.110308,-0.46244 -0.106066,-0.14001 -0.326682,-0.14001 -0.301226,0 -0.462446,0.21213 v 1.53159 h -0.475173 v -2.10434 h 0.394563 l 0.0297,0.18667 q 0.280013,-0.22486 0.632151,-0.22486 0.432747,0 0.63215,0.33517 0.110308,-0.16122 0.288499,-0.24607 0.182432,-0.0891 0.420019,-0.0891 z"
           style="font-style:normal;font-variant:normal;font-weight:600;font-stretch:normal;font-size:4.24262238px;font-family:Cabin;-inkscape-font-specification:'Cabin, Semi-Bold';font-variant-ligatures:normal;font-variant-caps:normal;font-variant-numeric:normal;font-feature-settings:normal;text-align:start;writing-mode:lr-tb;text-anchor:start;fill:#dcdcdc;fill-opacity:0.57647059;stroke-width:0.26425418"
           id="path22" />
        <path
           d="m 71.562907,203.81377 q -0.271528,0 -0.449718,-0.1697 -0.173948,-0.17395 -0.173948,-0.45396 0,-0.27577 0.195161,-0.44123 0.19516,-0.16547 0.466688,-0.23335 0.275771,-0.0721 0.547298,-0.0806 -0.0042,-0.22062 -0.09758,-0.30547 -0.09334,-0.0891 -0.309711,-0.0891 -0.135764,0 -0.271528,0.0424 -0.131521,0.0382 -0.296984,0.12728 l -0.05091,-0.38608 q 0.35638,-0.19516 0.750944,-0.19516 0.381836,0 0.568511,0.21213 0.186676,0.20789 0.186676,0.69155 v 0.52184 q 0,0.16547 0.01273,0.24183 0.01697,0.0721 0.05515,0.10183 0.04243,0.0297 0.135764,0.0297 h 0.0594 l -0.05515,0.38608 h -0.131521 q -0.203646,0 -0.318197,-0.0679 -0.110308,-0.0679 -0.17819,-0.1994 -0.110308,0.12303 -0.280013,0.19516 -0.169705,0.0721 -0.364865,0.0721 z m 0.169704,-0.3691 q 0.106066,0 0.220617,-0.0509 0.118793,-0.0551 0.199403,-0.14849 v -0.4879 q -0.326682,0.0127 -0.526085,0.11455 -0.195161,0.10182 -0.195161,0.29698 0,0.27578 0.301226,0.27578 z"
           style="font-style:normal;font-variant:normal;font-weight:600;font-stretch:normal;font-size:4.24262238px;font-family:Cabin;-inkscape-font-specification:'Cabin, Semi-Bold';font-variant-ligatures:normal;font-variant-caps:normal;font-variant-numeric:normal;font-feature-settings:normal;text-align:start;writing-mode:lr-tb;text-anchor:start;fill:#dcdcdc;fill-opacity:0.57647059;stroke-width:0.26425418"
           id="path24" />
        <path
           d="m 73.834698,203.81377 q -0.27577,0 -0.420019,-0.15697 -0.140007,-0.15698 -0.140007,-0.3776 v -1.23036 h -0.318197 l 0.04243,-0.38183 h 0.27577 v -0.48366 l 0.475174,-0.0509 v 0.53457 h 0.496387 v 0.38183 h -0.496387 v 1.00975 q 0,0.18667 0.02121,0.2588 0.02121,0.0679 0.0891,0.0891 0.07212,0.0212 0.254557,0.0212 h 0.127279 l -0.04243,0.38608 z"
           style="font-style:normal;font-variant:normal;font-weight:600;font-stretch:normal;font-size:4.24262238px;font-family:Cabin;-inkscape-font-specification:'Cabin, Semi-Bold';font-variant-ligatures:normal;font-variant-caps:normal;font-variant-numeric:normal;font-feature-settings:normal;text-align:start;writing-mode:lr-tb;text-anchor:start;fill:#dcdcdc;fill-opacity:0.57647059;stroke-width:0.26425418"
           id="path26" />
        <path
           d="m 74.584781,200.80151 h 0.475173 v 0.4879 h -0.475173 z m 0,0.8655 h 0.475173 v 2.10434 h -0.475173 z"
           style="font-style:normal;font-variant:normal;font-weight:600;font-stretch:normal;font-size:4.24262238px;font-family:Cabin;-inkscape-font-specification:'Cabin, Semi-Bold';font-variant-ligatures:normal;font-variant-caps:normal;font-variant-numeric:normal;font-feature-settings:normal;text-align:start;writing-mode:lr-tb;text-anchor:start;fill:#dcdcdc;fill-opacity:0.57647059;stroke-width:0.26425418"
           id="path28" />
        <path
           d="m 76.504435,203.81377 q -0.326682,0 -0.568512,-0.14425 -0.241829,-0.14849 -0.373351,-0.3988 -0.127278,-0.25032 -0.127278,-0.55154 0,-0.30123 0.127278,-0.55154 0.131522,-0.25032 0.373351,-0.39457 0.24183,-0.14849 0.568512,-0.14849 0.330924,0 0.572754,0.14849 0.241829,0.14425 0.369108,0.39457 0.127278,0.25031 0.127278,0.55154 0,0.30122 -0.127278,0.55154 -0.127279,0.25031 -0.369108,0.3988 -0.24183,0.14425 -0.572754,0.14425 z m 0,-0.3988 q 0.27577,0 0.428505,-0.18668 0.156977,-0.18667 0.156977,-0.50911 0,-0.3182 -0.156977,-0.50488 -0.152735,-0.19091 -0.428505,-0.19091 -0.275771,0 -0.428505,0.19091 -0.152735,0.18668 -0.152735,0.50488 0,0.32244 0.152735,0.50911 0.152734,0.18668 0.428505,0.18668 z"
           style="font-style:normal;font-variant:normal;font-weight:600;font-stretch:normal;font-size:4.24262238px;font-family:Cabin;-inkscape-font-specification:'Cabin, Semi-Bold';font-variant-ligatures:normal;font-variant-caps:normal;font-variant-numeric:normal;font-feature-settings:normal;text-align:start;writing-mode:lr-tb;text-anchor:start;fill:#dcdcdc;fill-opacity:0.57647059;stroke-width:0.26425418"
           id="path30" />
        <path
           d="m 79.001217,201.62882 q 0.411535,0 0.615181,0.2588 0.203646,0.2588 0.203646,0.71276 v 1.17097 h -0.470932 v -1.14127 q 0,-0.31395 -0.110308,-0.4582 -0.106065,-0.14425 -0.35638,-0.14425 -0.296984,0 -0.458203,0.20789 v 1.53583 h -0.475174 v -2.10434 h 0.42002 l 0.01697,0.17394 q 0.271528,-0.21213 0.61518,-0.21213 z"
           style="font-style:normal;font-variant:normal;font-weight:600;font-stretch:normal;font-size:4.24262238px;font-family:Cabin;-inkscape-font-specification:'Cabin, Semi-Bold';font-variant-ligatures:normal;font-variant-caps:normal;font-variant-numeric:normal;font-feature-settings:normal;text-align:start;writing-mode:lr-tb;text-anchor:start;fill:#dcdcdc;fill-opacity:0.57647059;stroke-width:0.26425418"
           id="path32" />
        <path
           d="m 80.900587,203.81377 q -0.386078,0 -0.717003,-0.16546 l 0.04667,-0.42002 q 0.326682,0.21213 0.653364,0.21213 0.173947,0 0.263043,-0.0551 0.09334,-0.0594 0.09334,-0.17395 0,-0.12728 -0.09334,-0.19092 -0.09334,-0.0636 -0.305469,-0.14 -0.309712,-0.10607 -0.470931,-0.24183 -0.156977,-0.13577 -0.156977,-0.39457 0,-0.27152 0.203646,-0.44547 0.207888,-0.17395 0.581239,-0.17395 0.347895,0 0.623665,0.15273 l -0.04667,0.41154 q -0.140006,-0.10182 -0.27577,-0.15698 -0.135764,-0.0551 -0.292741,-0.0551 -0.156977,0 -0.241829,0.0636 -0.08485,0.0594 -0.08485,0.17394 0,0.0849 0.04667,0.14001 0.04667,0.0552 0.131521,0.0933 0.0891,0.0382 0.275771,0.10606 0.284255,0.10607 0.432747,0.24608 0.152735,0.13576 0.152735,0.38608 0,0.28425 -0.203646,0.4582 -0.203646,0.1697 -0.615181,0.1697 z"
           style="font-style:normal;font-variant:normal;font-weight:600;font-stretch:normal;font-size:4.24262238px;font-family:Cabin;-inkscape-font-specification:'Cabin, Semi-Bold';font-variant-ligatures:normal;font-variant-caps:normal;font-variant-numeric:normal;font-feature-settings:normal;text-align:start;writing-mode:lr-tb;text-anchor:start;fill:#dcdcdc;fill-opacity:0.57647059;stroke-width:0.26425418"
           id="path34" />
      </g>
    </g>
  </g>
</svg>
