<?xml version="1.0" encoding="UTF-8" standalone="no"?>
<!-- Created with Inkscape (http://www.inkscape.org/) -->

<svg
   xmlns:dc="http://purl.org/dc/elements/1.1/"
   xmlns:cc="http://creativecommons.org/ns#"
   xmlns:rdf="http://www.w3.org/1999/02/22-rdf-syntax-ns#"
   xmlns:svg="http://www.w3.org/2000/svg"
   xmlns="http://www.w3.org/2000/svg"
   xmlns:sodipodi="http://sodipodi.sourceforge.net/DTD/sodipodi-0.dtd"
   xmlns:inkscape="http://www.inkscape.org/namespaces/inkscape"
   width="100"
   height="40.000004"
   viewBox="0 0 26.458333 10.583335"
   version="1.1"
   id="svg919"
   inkscape:version="0.92.4 (5da689c313, 2019-01-14)"
   sodipodi:docname="Introduction.svg">
  <defs
     id="defs913" />
  <sodipodi:namedview
     id="base"
     pagecolor="#ffffff"
     bordercolor="#666666"
     borderopacity="1.0"
     inkscape:pageopacity="0.0"
     inkscape:pageshadow="2"
     inkscape:zoom="5.6568542"
     inkscape:cx="30.134661"
     inkscape:cy="17.30317"
     inkscape:document-units="px"
     inkscape:current-layer="layer1"
     showgrid="false"
     units="px"
     fit-margin-top="0"
     fit-margin-left="0"
     fit-margin-right="0"
     fit-margin-bottom="0"
     inkscape:window-width="1920"
     inkscape:window-height="1017"
     inkscape:window-x="-8"
     inkscape:window-y="-8"
     inkscape:window-maximized="1" />
  <metadata
     id="metadata916">
    <rdf:RDF>
      <cc:Work
         rdf:about="">
        <dc:format>image/svg+xml</dc:format>
        <dc:type
           rdf:resource="http://purl.org/dc/dcmitype/StillImage" />
        <dc:title />
      </cc:Work>
    </rdf:RDF>
  </metadata>
  <g
     inkscape:label="Calque 1"
     inkscape:groupmode="layer"
     id="layer1"
     transform="translate(-48.915841,-95.585303)">
    <g
       transform="matrix(1.0000057,0,0,1.0000149,-9.2929028,-190.83571)"
       id="g4797">
      <path
         style="fill:#134c69;fill-opacity:1;stroke:#001323;stroke-width:0.52899998;stroke-linecap:round;stroke-linejoin:round;stroke-miterlimit:4;stroke-dasharray:none;stroke-opacity:1"
         d="m 58.472912,286.68124 h 25.92918 v 10.05418 h -25.92918 z"
         id="rect10-0-6" />
      <g
         id="g4791">
        <g
           aria-label="Introduction"
           transform="scale(1.0154516,0.98478351)"
           style="font-style:normal;font-variant:normal;font-weight:600;font-stretch:normal;font-size:4.24218273px;line-height:1.25;font-family:Cabin;-inkscape-font-specification:'Cabin, Semi-Bold';font-variant-ligatures:normal;font-variant-caps:normal;font-variant-numeric:normal;font-feature-settings:normal;text-align:start;letter-spacing:0px;word-spacing:0px;writing-mode:lr-tb;text-anchor:start;fill:#dcdcdc;fill-opacity:0.57647059;stroke:none;stroke-width:0.26422682"
           id="text819-5-7">
          <path
             d="m 59.407066,294.81575 h 0.492093 v 2.96953 h -0.492093 z"
             style="font-style:normal;font-variant:normal;font-weight:600;font-stretch:normal;font-size:4.24218273px;font-family:Cabin;-inkscape-font-specification:'Cabin, Semi-Bold';font-variant-ligatures:normal;font-variant-caps:normal;font-variant-numeric:normal;font-feature-settings:normal;text-align:start;writing-mode:lr-tb;text-anchor:start;fill:#dcdcdc;fill-opacity:0.57647059;stroke-width:0.26422682"
             id="path13" />
          <path
             d="m 61.488785,295.64298 q 0.411491,0 0.615116,0.25877 0.203625,0.25877 0.203625,0.71269 v 1.17084 h -0.470882 v -1.14115 q 0,-0.31392 -0.110297,-0.45815 -0.106055,-0.14424 -0.356344,-0.14424 -0.296952,0 -0.458155,0.20787 v 1.53567 h -0.475125 v -2.10412 h 0.419976 l 0.01697,0.17393 q 0.2715,-0.21211 0.615117,-0.21211 z"
             style="font-style:normal;font-variant:normal;font-weight:600;font-stretch:normal;font-size:4.24218273px;font-family:Cabin;-inkscape-font-specification:'Cabin, Semi-Bold';font-variant-ligatures:normal;font-variant-caps:normal;font-variant-numeric:normal;font-feature-settings:normal;text-align:start;writing-mode:lr-tb;text-anchor:start;fill:#dcdcdc;fill-opacity:0.57647059;stroke-width:0.26422682"
             id="path15" />
          <path
             d="m 63.456627,297.8277 q -0.275742,0 -0.419976,-0.15696 -0.139992,-0.15696 -0.139992,-0.37755 v -1.23024 h -0.318164 l 0.04242,-0.38179 h 0.275742 v -0.48361 l 0.475124,-0.0509 v 0.53452 h 0.496336 v 0.38179 h -0.496336 v 1.00964 q 0,0.18666 0.02121,0.25877 0.02121,0.0679 0.08909,0.0891 0.07212,0.0212 0.254531,0.0212 h 0.127266 l -0.04242,0.38604 z"
             style="font-style:normal;font-variant:normal;font-weight:600;font-stretch:normal;font-size:4.24218273px;font-family:Cabin;-inkscape-font-specification:'Cabin, Semi-Bold';font-variant-ligatures:normal;font-variant-caps:normal;font-variant-numeric:normal;font-feature-settings:normal;text-align:start;writing-mode:lr-tb;text-anchor:start;fill:#dcdcdc;fill-opacity:0.57647059;stroke-width:0.26422682"
             id="path17" />
          <path
             d="m 64.206631,295.68116 h 0.428461 l 0.02545,0.26725 q 0.114539,-0.13999 0.263015,-0.22483 0.148477,-0.0849 0.30968,-0.0849 0.04242,0 0.09333,0.008 l -0.03818,0.48361 q -0.06788,-0.0212 -0.161203,-0.0212 -0.139992,0 -0.263015,0.0679 -0.123023,0.0636 -0.17393,0.15272 v 1.45507 h -0.483609 z"
             style="font-style:normal;font-variant:normal;font-weight:600;font-stretch:normal;font-size:4.24218273px;font-family:Cabin;-inkscape-font-specification:'Cabin, Semi-Bold';font-variant-ligatures:normal;font-variant-caps:normal;font-variant-numeric:normal;font-feature-settings:normal;text-align:start;writing-mode:lr-tb;text-anchor:start;fill:#dcdcdc;fill-opacity:0.57647059;stroke-width:0.26422682"
             id="path19" />
          <path
             d="m 66.482364,297.8277 q -0.326648,0 -0.568453,-0.14423 -0.241804,-0.14848 -0.373312,-0.39877 -0.127265,-0.25029 -0.127265,-0.55148 0,-0.3012 0.127265,-0.55149 0.131508,-0.25029 0.373312,-0.39452 0.241805,-0.14848 0.568453,-0.14848 0.33089,0 0.572694,0.14848 0.241805,0.14423 0.36907,0.39452 0.127266,0.25029 0.127266,0.55149 0,0.30119 -0.127266,0.55148 -0.127265,0.25029 -0.36907,0.39877 -0.241804,0.14423 -0.572694,0.14423 z m 0,-0.39877 q 0.275742,0 0.42846,-0.18665 0.156961,-0.18666 0.156961,-0.50906 0,-0.31817 -0.156961,-0.50482 -0.152718,-0.1909 -0.42846,-0.1909 -0.275742,0 -0.428461,0.1909 -0.152718,0.18665 -0.152718,0.50482 0,0.3224 0.152718,0.50906 0.152719,0.18665 0.428461,0.18665 z"
             style="font-style:normal;font-variant:normal;font-weight:600;font-stretch:normal;font-size:4.24218273px;font-family:Cabin;-inkscape-font-specification:'Cabin, Semi-Bold';font-variant-ligatures:normal;font-variant-caps:normal;font-variant-numeric:normal;font-feature-settings:normal;text-align:start;writing-mode:lr-tb;text-anchor:start;fill:#dcdcdc;fill-opacity:0.57647059;stroke-width:0.26422682"
             id="path21" />
          <path
             d="m 69.827325,294.60364 v 3.18164 H 69.39038 l -0.02121,-0.17817 q -0.241804,0.22059 -0.598147,0.22059 -0.292711,0 -0.513304,-0.14423 -0.220594,-0.14848 -0.339375,-0.39453 -0.118781,-0.25029 -0.118781,-0.55148 0,-0.29695 0.114539,-0.54724 0.118781,-0.25029 0.335132,-0.39877 0.220594,-0.14847 0.521789,-0.14847 0.343616,0 0.581179,0.20362 v -1.24296 z m -0.984186,2.82529 q 0.250288,0 0.394523,-0.18241 0.148476,-0.18241 0.148476,-0.50906 0,-0.32241 -0.148476,-0.50906 -0.148477,-0.18666 -0.394523,-0.18666 -0.258773,0 -0.40725,0.19514 -0.148476,0.1909 -0.148476,0.50058 0,0.30544 0.148476,0.50058 0.148477,0.19089 0.40725,0.19089 z"
             style="font-style:normal;font-variant:normal;font-weight:600;font-stretch:normal;font-size:4.24218273px;font-family:Cabin;-inkscape-font-specification:'Cabin, Semi-Bold';font-variant-ligatures:normal;font-variant-caps:normal;font-variant-numeric:normal;font-feature-settings:normal;text-align:start;writing-mode:lr-tb;text-anchor:start;fill:#dcdcdc;fill-opacity:0.57647059;stroke-width:0.26422682"
             id="path23" />
          <path
             d="m 72.120026,295.68116 v 2.10412 h -0.436945 l -0.02121,-0.1612 q -0.09333,0.0933 -0.229078,0.14847 -0.131507,0.0551 -0.279984,0.0551 -0.436945,0 -0.644812,-0.25453 -0.207867,-0.25453 -0.207867,-0.72966 v -1.16235 h 0.475125 v 1.12417 q 0,0.31393 0.101812,0.46664 0.106055,0.15272 0.339375,0.15272 0.275742,0 0.42846,-0.19938 v -1.54415 z"
             style="font-style:normal;font-variant:normal;font-weight:600;font-stretch:normal;font-size:4.24218273px;font-family:Cabin;-inkscape-font-specification:'Cabin, Semi-Bold';font-variant-ligatures:normal;font-variant-caps:normal;font-variant-numeric:normal;font-feature-settings:normal;text-align:start;writing-mode:lr-tb;text-anchor:start;fill:#dcdcdc;fill-opacity:0.57647059;stroke-width:0.26422682"
             id="path25" />
          <path
             d="m 73.600415,297.8277 q -0.347859,0 -0.598148,-0.14423 -0.246047,-0.14424 -0.373312,-0.39028 -0.127266,-0.24605 -0.127266,-0.55149 0,-0.31392 0.123024,-0.56421 0.127265,-0.25029 0.377554,-0.39452 0.250289,-0.14424 0.619359,-0.14424 0.318163,0 0.568452,0.13151 l -0.05091,0.39028 q -0.246047,-0.11878 -0.487851,-0.11878 -0.318164,0 -0.492093,0.18666 -0.17393,0.18665 -0.17393,0.50482 0,0.31392 0.17393,0.50482 0.173929,0.19089 0.483609,0.19089 0.263015,0 0.500577,-0.13574 l 0.05091,0.39452 q -0.110296,0.0636 -0.267257,0.10181 -0.156961,0.0382 -0.326648,0.0382 z"
             style="font-style:normal;font-variant:normal;font-weight:600;font-stretch:normal;font-size:4.24218273px;font-family:Cabin;-inkscape-font-specification:'Cabin, Semi-Bold';font-variant-ligatures:normal;font-variant-caps:normal;font-variant-numeric:normal;font-feature-settings:normal;text-align:start;writing-mode:lr-tb;text-anchor:start;fill:#dcdcdc;fill-opacity:0.57647059;stroke-width:0.26422682"
             id="path27" />
          <path
             d="m 75.255198,297.8277 q -0.275742,0 -0.419976,-0.15696 -0.139992,-0.15696 -0.139992,-0.37755 v -1.23024 h -0.318164 l 0.04242,-0.38179 h 0.275742 v -0.48361 l 0.475124,-0.0509 v 0.53452 h 0.496335 v 0.38179 h -0.496335 v 1.00964 q 0,0.18666 0.02121,0.25877 0.02121,0.0679 0.08909,0.0891 0.07212,0.0212 0.254531,0.0212 h 0.127265 l -0.04242,0.38604 z"
             style="font-style:normal;font-variant:normal;font-weight:600;font-stretch:normal;font-size:4.24218273px;font-family:Cabin;-inkscape-font-specification:'Cabin, Semi-Bold';font-variant-ligatures:normal;font-variant-caps:normal;font-variant-numeric:normal;font-feature-settings:normal;text-align:start;writing-mode:lr-tb;text-anchor:start;fill:#dcdcdc;fill-opacity:0.57647059;stroke-width:0.26422682"
             id="path29" />
          <path
             d="m 76.005202,294.81575 h 0.475125 v 0.48785 h -0.475125 z m 0,0.86541 h 0.475125 v 2.10412 h -0.475125 z"
             style="font-style:normal;font-variant:normal;font-weight:600;font-stretch:normal;font-size:4.24218273px;font-family:Cabin;-inkscape-font-specification:'Cabin, Semi-Bold';font-variant-ligatures:normal;font-variant-caps:normal;font-variant-numeric:normal;font-feature-settings:normal;text-align:start;writing-mode:lr-tb;text-anchor:start;fill:#dcdcdc;fill-opacity:0.57647059;stroke-width:0.26422682"
             id="path31" />
          <path
             d="m 77.924658,297.8277 q -0.326648,0 -0.568452,-0.14423 -0.241805,-0.14848 -0.373312,-0.39877 -0.127266,-0.25029 -0.127266,-0.55148 0,-0.3012 0.127266,-0.55149 0.131507,-0.25029 0.373312,-0.39452 0.241804,-0.14848 0.568452,-0.14848 0.330891,0 0.572695,0.14848 0.241804,0.14423 0.36907,0.39452 0.127265,0.25029 0.127265,0.55149 0,0.30119 -0.127265,0.55148 -0.127266,0.25029 -0.36907,0.39877 -0.241804,0.14423 -0.572695,0.14423 z m 0,-0.39877 q 0.275742,0 0.428461,-0.18665 0.156961,-0.18666 0.156961,-0.50906 0,-0.31817 -0.156961,-0.50482 -0.152719,-0.1909 -0.428461,-0.1909 -0.275742,0 -0.42846,0.1909 -0.152719,0.18665 -0.152719,0.50482 0,0.3224 0.152719,0.50906 0.152718,0.18665 0.42846,0.18665 z"
             style="font-style:normal;font-variant:normal;font-weight:600;font-stretch:normal;font-size:4.24218273px;font-family:Cabin;-inkscape-font-specification:'Cabin, Semi-Bold';font-variant-ligatures:normal;font-variant-caps:normal;font-variant-numeric:normal;font-feature-settings:normal;text-align:start;writing-mode:lr-tb;text-anchor:start;fill:#dcdcdc;fill-opacity:0.57647059;stroke-width:0.26422682"
             id="path33" />
          <path
             d="m 80.421182,295.64298 q 0.411491,0 0.615116,0.25877 0.203625,0.25877 0.203625,0.71269 v 1.17084 h -0.470882 v -1.14115 q 0,-0.31392 -0.110297,-0.45815 -0.106055,-0.14424 -0.356343,-0.14424 -0.296953,0 -0.458156,0.20787 v 1.53567 H 79.36912 v -2.10412 h 0.419977 l 0.01697,0.17393 q 0.2715,-0.21211 0.615117,-0.21211 z"
             style="font-style:normal;font-variant:normal;font-weight:600;font-stretch:normal;font-size:4.24218273px;font-family:Cabin;-inkscape-font-specification:'Cabin, Semi-Bold';font-variant-ligatures:normal;font-variant-caps:normal;font-variant-numeric:normal;font-feature-settings:normal;text-align:start;writing-mode:lr-tb;text-anchor:start;fill:#dcdcdc;fill-opacity:0.57647059;stroke-width:0.26422682"
             id="path35" />
        </g>
      </g>
    </g>
  </g>
</svg>
