<?xml version="1.0" encoding="UTF-8" standalone="no"?>
<!-- Created with Inkscape (http://www.inkscape.org/) -->

<svg
   xmlns:dc="http://purl.org/dc/elements/1.1/"
   xmlns:cc="http://creativecommons.org/ns#"
   xmlns:rdf="http://www.w3.org/1999/02/22-rdf-syntax-ns#"
   xmlns:svg="http://www.w3.org/2000/svg"
   xmlns="http://www.w3.org/2000/svg"
   xmlns:sodipodi="http://sodipodi.sourceforge.net/DTD/sodipodi-0.dtd"
   xmlns:inkscape="http://www.inkscape.org/namespaces/inkscape"
   width="100"
   height="40.000004"
   viewBox="0 0 26.458333 10.583335"
   version="1.1"
   id="svg919"
   inkscape:version="0.92.4 (5da689c313, 2019-01-14)"
   sodipodi:docname="Partie2.svg">
  <defs
     id="defs913" />
  <sodipodi:namedview
     id="base"
     pagecolor="#ffffff"
     bordercolor="#666666"
     borderopacity="1.0"
     inkscape:pageopacity="0.0"
     inkscape:pageshadow="2"
     inkscape:zoom="5.6568542"
     inkscape:cx="30.134661"
     inkscape:cy="17.30317"
     inkscape:document-units="px"
     inkscape:current-layer="layer1"
     showgrid="false"
     units="px"
     fit-margin-top="0"
     fit-margin-left="0"
     fit-margin-right="0"
     fit-margin-bottom="0"
     inkscape:window-width="1920"
     inkscape:window-height="1017"
     inkscape:window-x="-8"
     inkscape:window-y="-8"
     inkscape:window-maximized="1" />
  <metadata
     id="metadata916">
    <rdf:RDF>
      <cc:Work
         rdf:about="">
        <dc:format>image/svg+xml</dc:format>
        <dc:type
           rdf:resource="http://purl.org/dc/dcmitype/StillImage" />
        <dc:title />
      </cc:Work>
    </rdf:RDF>
  </metadata>
  <g
     inkscape:label="Calque 1"
     inkscape:groupmode="layer"
     id="layer1"
     transform="translate(-48.915841,-95.585303)">
    <g
       transform="matrix(1.0000057,0,0,1.0000149,-9.2929028,-164.37696)"
       id="g4782">
      <path
         style="fill:#134c69;fill-opacity:1;stroke:#001323;stroke-width:0.52899998;stroke-linecap:round;stroke-linejoin:round;stroke-miterlimit:4;stroke-dasharray:none;stroke-opacity:1"
         d="m 58.472912,260.2229 h 25.92918 v 10.05418 h -25.92918 z"
         id="rect10-1-0-0-1" />
      <g
         aria-label="Partie II"
         transform="scale(0.97497606,1.0256662)"
         style="font-style:normal;font-variant:normal;font-weight:600;font-stretch:normal;font-size:4.35992813px;line-height:1.25;font-family:Cabin;-inkscape-font-specification:'Cabin, Semi-Bold';font-variant-ligatures:normal;font-variant-caps:normal;font-variant-numeric:normal;font-feature-settings:normal;text-align:start;letter-spacing:0px;word-spacing:0px;writing-mode:lr-tb;text-anchor:start;fill:#dcdcdc;fill-opacity:0.57647059;stroke:none;stroke-width:0.27156067"
         id="text819-2-2-1-2">
        <path
           d="m 66.486673,257.06463 h 1.059463 q 1.063822,0 1.063822,0.98534 0,0.50575 -0.274675,0.75427 -0.274676,0.24851 -0.784787,0.24851 h -0.549351 v 1.06383 h -0.514472 z m 1.002784,1.55649 q 0.305195,0 0.453432,-0.13516 0.152598,-0.13951 0.152598,-0.42727 0,-0.29211 -0.152598,-0.42727 -0.148237,-0.13516 -0.462152,-0.13516 h -0.479592 v 1.12486 z"
           style="font-style:normal;font-variant:normal;font-weight:600;font-stretch:normal;font-size:4.35992813px;font-family:Cabin;-inkscape-font-specification:'Cabin, Semi-Bold';font-variant-ligatures:normal;font-variant-caps:normal;font-variant-numeric:normal;font-feature-settings:normal;text-align:start;writing-mode:lr-tb;text-anchor:start;fill:#dcdcdc;fill-opacity:0.57647059;stroke-width:0.27156067"
           id="path12" />
        <path
           d="m 69.386979,260.16018 q -0.279035,0 -0.462152,-0.1744 -0.178757,-0.17876 -0.178757,-0.46651 0,-0.2834 0.200556,-0.45344 0.200557,-0.17003 0.479592,-0.23979 0.283396,-0.0741 0.562431,-0.0828 -0.0044,-0.22672 -0.100278,-0.31392 -0.09592,-0.0915 -0.318275,-0.0915 -0.139518,0 -0.279035,0.0436 -0.135158,0.0392 -0.305195,0.13079 l -0.05232,-0.39675 q 0.366234,-0.20056 0.771707,-0.20056 0.392393,0 0.58423,0.218 0.191837,0.21364 0.191837,0.71067 v 0.53627 q 0,0.17004 0.01308,0.24852 0.01744,0.0741 0.05668,0.10463 0.0436,0.0305 0.139518,0.0305 h 0.06104 l -0.05668,0.39676 H 70.5598 q -0.209277,0 -0.326995,-0.0698 -0.113358,-0.0698 -0.183117,-0.20492 -0.113358,0.12644 -0.287755,0.20056 -0.174397,0.0741 -0.374954,0.0741 z m 0.174397,-0.37932 q 0.108998,0 0.226716,-0.0523 0.122078,-0.0567 0.204917,-0.15259 v -0.5014 q -0.335714,0.0131 -0.540631,0.11772 -0.200557,0.10464 -0.200557,0.3052 0,0.28339 0.309555,0.28339 z"
           style="font-style:normal;font-variant:normal;font-weight:600;font-stretch:normal;font-size:4.35992813px;font-family:Cabin;-inkscape-font-specification:'Cabin, Semi-Bold';font-variant-ligatures:normal;font-variant-caps:normal;font-variant-numeric:normal;font-feature-settings:normal;text-align:start;writing-mode:lr-tb;text-anchor:start;fill:#dcdcdc;fill-opacity:0.57647059;stroke-width:0.27156067"
           id="path14" />
        <path
           d="m 71.044773,257.95405 h 0.440353 l 0.02616,0.27468 q 0.117718,-0.14388 0.270315,-0.23108 0.152598,-0.0872 0.318275,-0.0872 0.0436,0 0.09592,0.009 l -0.03924,0.49704 q -0.06976,-0.0218 -0.165677,-0.0218 -0.143878,0 -0.270316,0.0697 -0.126438,0.0654 -0.178757,0.15696 v 1.49546 h -0.497032 z"
           style="font-style:normal;font-variant:normal;font-weight:600;font-stretch:normal;font-size:4.35992813px;font-family:Cabin;-inkscape-font-specification:'Cabin, Semi-Bold';font-variant-ligatures:normal;font-variant-caps:normal;font-variant-numeric:normal;font-feature-settings:normal;text-align:start;writing-mode:lr-tb;text-anchor:start;fill:#dcdcdc;fill-opacity:0.57647059;stroke-width:0.27156067"
           id="path16" />
        <path
           d="m 73.177732,260.16018 q -0.283395,0 -0.431633,-0.16132 -0.143878,-0.16132 -0.143878,-0.38803 v -1.26438 h -0.326994 l 0.0436,-0.3924 h 0.283395 v -0.49703 l 0.488312,-0.0523 v 0.54935 h 0.510112 v 0.3924 h -0.510112 v 1.03766 q 0,0.19184 0.0218,0.26595 0.0218,0.0698 0.09156,0.0916 0.07412,0.0218 0.261596,0.0218 h 0.130798 l -0.0436,0.39676 z"
           style="font-style:normal;font-variant:normal;font-weight:600;font-stretch:normal;font-size:4.35992813px;font-family:Cabin;-inkscape-font-specification:'Cabin, Semi-Bold';font-variant-ligatures:normal;font-variant-caps:normal;font-variant-numeric:normal;font-feature-settings:normal;text-align:start;writing-mode:lr-tb;text-anchor:start;fill:#dcdcdc;fill-opacity:0.57647059;stroke-width:0.27156067"
           id="path18" />
        <path
           d="m 73.948554,257.06463 h 0.488312 v 0.50139 h -0.488312 z m 0,0.88942 h 0.488312 v 2.16253 h -0.488312 z"
           style="font-style:normal;font-variant:normal;font-weight:600;font-stretch:normal;font-size:4.35992813px;font-family:Cabin;-inkscape-font-specification:'Cabin, Semi-Bold';font-variant-ligatures:normal;font-variant-caps:normal;font-variant-numeric:normal;font-feature-settings:normal;text-align:start;writing-mode:lr-tb;text-anchor:start;fill:#dcdcdc;fill-opacity:0.57647059;stroke-width:0.27156067"
           id="path20" />
        <path
           d="m 75.995404,260.16018 q -0.374954,0 -0.64091,-0.1526 -0.261595,-0.1526 -0.396753,-0.40983 -0.135158,-0.2616 -0.135158,-0.57987 0,-0.3052 0.122078,-0.55372 0.126438,-0.25287 0.366234,-0.40111 0.244156,-0.14824 0.571151,-0.14824 0.287755,0 0.497031,0.12208 0.213637,0.11772 0.322635,0.327 0.113358,0.20927 0.113358,0.47959 0,0.13952 -0.03052,0.26595 h -1.456216 q 0.03924,0.33572 0.231076,0.48832 0.196197,0.15259 0.483952,0.15259 0.353154,0 0.640909,-0.16131 l 0.03488,0.40547 q -0.331355,0.16568 -0.723748,0.16568 z m 0.322634,-1.3821 q 0,-0.19184 -0.108998,-0.32264 -0.108998,-0.13079 -0.331354,-0.13079 -0.422913,0 -0.531912,0.45343 z"
           style="font-style:normal;font-variant:normal;font-weight:600;font-stretch:normal;font-size:4.35992813px;font-family:Cabin;-inkscape-font-specification:'Cabin, Semi-Bold';font-variant-ligatures:normal;font-variant-caps:normal;font-variant-numeric:normal;font-feature-settings:normal;text-align:start;writing-mode:lr-tb;text-anchor:start;fill:#dcdcdc;fill-opacity:0.57647059;stroke-width:0.27156067"
           id="path22" />
        <path
           d="m 78.255072,257.06463 h 0.505752 v 3.05195 h -0.505752 z"
           style="font-style:normal;font-variant:normal;font-weight:600;font-stretch:normal;font-size:4.35992813px;font-family:Cabin;-inkscape-font-specification:'Cabin, Semi-Bold';font-variant-ligatures:normal;font-variant-caps:normal;font-variant-numeric:normal;font-feature-settings:normal;text-align:start;writing-mode:lr-tb;text-anchor:start;fill:#dcdcdc;fill-opacity:0.57647059;stroke-width:0.27156067"
           id="path24" />
        <path
           d="m 79.438725,257.06463 h 0.505752 v 3.05195 h -0.505752 z"
           style="font-style:normal;font-variant:normal;font-weight:600;font-stretch:normal;font-size:4.35992813px;font-family:Cabin;-inkscape-font-specification:'Cabin, Semi-Bold';font-variant-ligatures:normal;font-variant-caps:normal;font-variant-numeric:normal;font-feature-settings:normal;text-align:start;writing-mode:lr-tb;text-anchor:start;fill:#dcdcdc;fill-opacity:0.57647059;stroke-width:0.27156067"
           id="path26" />
      </g>
    </g>
  </g>
</svg>
